<?xml version="1.0" encoding="utf-8"?>
<!-- Generator: Adobe Illustrator 22.1.0, SVG Export Plug-In . SVG Version: 6.00 Build 0)  -->
<svg version="1.1" xmlns="http://www.w3.org/2000/svg" xmlns:xlink="http://www.w3.org/1999/xlink" x="0px" y="0px"
	 viewBox="0 0 2272 1872" style="enable-background:new 0 0 2272 1872;" xml:space="preserve">
<style type="text/css">
	.st0{fill:#74CBBE;}
	.st1{fill:#47A4AD;}
	.st2{fill:#C1B900;}
	.st3{fill:#7C7000;}
	.st4{fill:#FFF036;}
	.st5{fill:#5F6F87;}
	.st6{fill:#3B4D63;}
	.st7{fill:#DB9CBC;}
	.st8{fill:#894A6E;}
	.st9{fill:#FFFFFF;}
	.st10{fill:#6DC4F5;}
	.st11{fill:#EABBD5;}
	.st12{fill:#C1C9D6;}
	.st13{fill:#282B3F;}
</style>
<g id="Background">
	<rect class="st0" width="2272" height="1872"/>
</g>
<g id="Object">
	<g>
		<path class="st1" d="M2113.6,1120.2c1.4-5.7,1.2-14.5-1-19.3c0.3-2.2-2-21.3-7.1-36c-11.2-31.8-35.3-48.7-77.4-60.3
			c-16.7-4.5-34.5-7.3-34.5-7.3c-44.1-6.8-82.5-9.1-83.7-9.1c0,0,0,0,0,0c0,0,0,0,0,0c-22.5-1.3-24.2-1.4-24.2-1.4
			c-40.4-1.6-76.2-2.6-127.6-1.3c-25.4-49.6-120.7-114.2-177.3-170.8c0,0-825,562.1-822.8,585.9c2.2,23.8,156.9,169,235.6,169
			s698.1,17.2,751.7-13.7c32.7-18.9,34.8-214.4,29.6-369.5c31.3,31.6,104,43,160.5,46.1c32.2,1.8,79.6-4.5,122.4-20.6l0-0.1
			c14.9-6,27.5-13.3,35.7-21.7c5.2-5.3,20.4-26.6,23.7-48.3C2120.2,1131.1,2115.7,1123.1,2113.6,1120.2z M1788.8,1092.7
			c-2.4,1.6-4.3,3.4-5.7,5.4c-4.8,2.2-8.7,5.5-11.7,9.3c-0.5-9.4-1-18.4-1.5-26.9c7.1,1.2,13.8,3,20.4,5.6
			C1789.5,1088.2,1789.1,1090.5,1788.8,1092.7z"/>
		<g>
			<g>
				<path class="st2" d="M905.5,1240.9c60.6,5.3,330.4,14.9,403.5,14.9s243.9-3.9,254.9-10.2c10.9-6.3,41.9-38.5,41.9-86.1
					c0-41.9-7.5-302-9.3-366.7c-1.3-1.2-2.5-2.2-3.7-2.9l-0.2-0.1l-0.1-0.2c-21.5-33.4-59.7-37.1-88-34.4l-0.1,0
					c-12.4-0.2-72.9-39.1-94.5-74.4c-2.6-4-7.8-14.3-8.3-15.4l-0.1-0.1l-0.1-0.2c-0.1-0.3-0.4-0.8-0.7-1.5
					c-2.4-5-8.8-18.4-15.5-37.9c-3.2-9.2-9.6-30.2-10.2-37.3l-0.1-0.7l0.7-0.2c1.9-0.4,3.7-0.9,5.6-1.4l-1-1.4
					c-16.6,3.9-41.1,8-61.4,8c-27.9,0-165.4,0.7-165.4,0.7s-69.8-2-83.2-2c-12.9,0-43.3-4.6-54.3-5.4c2.5,0.6,5.1,1.1,7.7,1.5
					l0.9,0.2l-0.2,0.9c-14.8,55.2-37,105.3-84.3,137l0,0c0,0,0,0,0,0c-29.9,20.1-64.4,14.1-101.5,28.6l-0.1,0.1
					c-1.3,0.1-2.5,0.8-3.7,1.5c-4.1,2-7.9,3.6-11.5,5.5c-33.7,102.5-43.7,445.3-43.7,461C779.4,1240,844.9,1235.6,905.5,1240.9z"/>
				<path class="st3" d="M871,867.3c10.1-40.6,27.6-16.2,35.1,10.1c20.7-43.8,42.5-106,56-119.4c14.5-25.4,30.7-47.4,30.7-47.4
					l30.6-59.9l6.1-62.6h-4.1c0,0-4.6,16.6-6.1,20.3s-15.2,44-18.1,47.7c-2.8,3.7-16.8,25.6-18.7,29.2c-1.9,3.6-24.2,28.5-28.8,32.1
					c-4.5,3.6-24.1,35.7-24.1,35.7S863.8,826.6,871,867.3z"/>
				<path class="st3" d="M824.6,1048c66,70.6,175.4,79.8,228.3,83.8c52.9,4,91.9,31.9,54.3,31.9c-37.6,0-156.3,8.9-173.2,8.9
					s79.7-13.3,41.2-22.6c-38.5-9.3-97.6-43.6-115.1-26.1s-3.4,58.1,41.6,64.9c-98.8,0-98.8-27.2-98.8-27.2L824.6,1048z"/>
				<path class="st3" d="M1528,1004.8c-23.6,13.6-59.9,23.5-59.9,23.5c54.8,54.8,102.1,183.1,64.1,212.6
					c31.7,4.7,62.7,9.3,79.6-33.1C1628.8,1165.5,1557.6,999.9,1528,1004.8z"/>
				<path class="st3" d="M1120,592.5c37,3.1,153,5,133,11.7s39.2,24.8,49.6,24.8s55.4-12,55.4-12s10,45.9,27,68.2
					c17,22.3,60,79.4,75,126.3s2.7,60.3,32.3,96.6c29.5,36.2,52.7,11.8,52.7,11.8s3.3-121-37.8-150.5s-81.5-68.2-81.5-68.2
					s-9.8-8.9-18.5-25.6s-17.1-36.5-17.1-36.5s-12-33.4-13-39.1s-2.9-12.1-2.9-12.1s-36.9,4.9-55.2,4.9c-18.3,0-77.7,0.7-77.7,0.7
					L1120,592.5z"/>
				<path class="st4" d="M832.5,1044.6c74.6,60.2,173,84.4,296.7,97.4C980.5,1134.4,848.5,1122.7,832.5,1044.6z"/>
				<path class="st4" d="M789.1,1198.8c102.8,46.9,637.2,43.4,701.4,46.4c-221.4,13.5-597.4,3-669.3-10
					C784.1,1224.3,766.3,1201.1,789.1,1198.8z"/>
				<path class="st5" d="M1614.3,868.1c0-0.5,0-1.3-0.1-2.3c-1.2-45.5-9.6-64.9-17.7-72.8c1.8,64.6,9.3,324.7,9.3,366.7
					c0,47.6-30.9,79.7-41.9,86.1c-10.9,6.3-181.7,10.2-254.9,10.2s-343-9.6-403.5-14.9c-60.6-5.3-126.1-0.9-126.1-18.5
					c0-15.7,10.1-358.5,43.7-461c-5.7,3.1-10.9,7.1-15.6,15.2c-11.7,19.5-23.5,93.8-26.8,116.1l-0.1,0.7h-19.6l-3.1,32.4l0.1,0
					l0.1,2.6l-0.2,0.1l9.1,44.7c0,0,0.1,0,0.1,0l0.7-0.3l0.3,0.7c1.5,3.2,3,5.9,4.7,8.2l0.2,0.3l0,0.3c-0.3,4.2-0.7,10-1.2,17.1
					c-5.9,84.9-23.8,342.9-17,391c0.1,0.3,0.2,0.7,0.3,1.3c2.4,19.9,32.3,36,84.4,45.4c49.8,9,85.1,9.6,254.9,12.9
					c31.7,0.6,67.5,1.3,109.2,2.1c299.6,5.1,330.5,4.6,348.2,1.7c18.9-2.9,36-8.9,49.5-17.4c15.6-9.8,26.3-22.7,31.8-38.3
					c0.3-0.8,0.6-1.6,0.8-2.3C1639.8,1380.6,1640.2,1379.3,1614.3,868.1z"/>
				<path class="st6" d="M1380.7,1255.1c2.7,44-62.7,177.5-91.2,195.9c78.5,0,209,5.6,245-5s52.7-83,56.1-114.5s7.5-89.4-9.6-87.6
					S1476.5,1255.1,1380.7,1255.1z"/>
			</g>
			<g>
				<path class="st7" d="M1848.1,617.2l0.1-0.3c0.7-2.2,1.4-5,1.9-7.9c-3.3,9.3-8.6,21.4-15.8,28.7c-13,13-47.1,28.1-62.7,26.9
					c-15.6-1.2-78.7,3.4-139.9-29.8c-61.3-33.3-77.3-54.7-95.3-77.8c-18-23.1-9.3-50.9-9.3-50.9l-0.3-3.1
					c-13.3,5.8-21.5,23.9-22.6,38.6l0,0.1c-5.8,23.7-11,48.6-4.1,68.8c8.8,26.1,29.7,50.4,62,72.1c31.3,21.1,67,35.5,91.5,43.8
					c27.4,9.4,74,15.1,122.8,3l0-0.1l0.8-0.2c16.7-4.8,29.7-11.8,38.7-20.8c6-6,24.7-31.5,31.9-60.5l0-0.1c5-13.8,2.1-25.8,0.6-30.3
					L1848.1,617.2z"/>
			</g>
			<path class="st8" d="M1726.1,660.6c47.5,2.7,89.1,13.4,76.2,34.7c26.7-15.4,43-38.3,47.7-57.7c-1.2-13.3-3-18.6-3-18.6
				C1833.5,640.8,1764.7,659.5,1726.1,660.6z"/>
			<path class="st9" d="M1521.8,581.7c55.2,67.6,203.2,122,283.4,99.9C1709,718.2,1576.7,666.5,1521.8,581.7z"/>
			<polygon class="st10" points="940,725.7 940,725.7 940,725.7 			"/>
			<polygon class="st10" points="940,725.7 940,725.7 940,725.7 			"/>
			<ellipse class="st2" cx="1191" cy="853.9" rx="251" ry="233.6"/>
			<path class="st4" d="M941.1,862.7c10.8,64.5,32.3,146.8,169.9,212.8C952.2,1022.5,941.3,906.8,941.1,862.7z"/>
			<ellipse class="st7" cx="1189" cy="837.3" rx="231" ry="217"/>
			<path class="st11" d="M1375.8,709.7c-42-54.2-110.1-89.4-186.9-89.4c-127.6,0-231,97.1-231,217c0,37.6,10.2,73,28.2,103.9
				c1-0.6,2-1.2,3.1-1.8C1120.4,856.9,1245.3,781.5,1375.8,709.7z"/>
			<path class="st2" d="M1389.8,940.7c-44.4-16.2-55.2-27.3-59.1-34.1c-3.8-6.8-7.4-12.3-12-10.5c-4.6,1.8-5.9,9,0,22.2
				s37.8,55,45.4,57.5C1371.7,978.2,1389.8,940.7,1389.8,940.7z"/>
			<ellipse class="st2" cx="1187.5" cy="827.4" rx="126.3" ry="116.8"/>
			<path class="st4" d="M1187.5,710.5c-69.8,0-126.3,52.3-126.3,116.8c0,20.7,5.9,40.2,16.1,57.1c71.1-43.8,141.1-85.7,212.1-126.3
				C1266.4,729.3,1229.3,710.5,1187.5,710.5z"/>
			<path class="st2" d="M1850.6,590.1l0-0.2c0.7-3,1.9-29.9-0.4-51.6c-5-45.1-23.8-75-64.8-102.9c-14.7-10-31-18.2-32.4-18.9
				l-0.1-0.1c-41.3-20.4-78.1-33.3-80.5-34.1h-0.2l-0.1-0.1c-19.6-6.8-22.8-7.9-23.3-8l-0.1,0c-48.3-15.5-85.7-26.3-144.5-38.9
				l-0.5-0.1l-0.1-0.5c-0.1-0.2-0.2-0.5-0.2-0.7l-83.7-15.1c0,0,0,0,0,0.1l-0.3,0.6l-0.6-0.1c-92.8-14.4-152.5-17.6-236.7-18.8
				l-0.3,0c-4.6,0-5.8,0-5.9,0c-77.5,0.6-136.3,4-196.6,11.3l-0.5,0.1l-0.3-0.4c0,0-0.1-0.1-0.1-0.1l-80.3,12.2c0,0,0,0,0,0.1
				l-0.2,0.4l-0.5,0.1c-57.6,10.5-97.4,22.2-205.7,55.7l-4,1.2c-49.4,15.3-132.1,40.9-147.9,62.5c-3.6,5.1-7.1,14.2-10.2,26.2
				l-0.1,0.5l-0.2,0l-10,48.6l0.9-0.3l-0.2,1.4c-1,6.3-1.9,12.2-2.7,17.7c-2.1,13.7-3.8,25.5-6,36.6l0,0.1c-1.3,3.4-1.7,8.4-1.4,14
				l0,0l0,0.3c0.3,4.2,1.1,8.6,2.3,12.9l0.1,0.3l-0.2,0.3c0,0,0,0,0,0c4.6,9,14.3,29.4,33.2,40.3c24.6,14.2,57.6,15.3,79.7,13.8
				c22-1.4,62.8-11.3,101.5-27.7c38.7-16.3,75.3-42.2,95.4-72.2c17.1-25.6,17.2-43,13.5-57.4c0,0,0,0,0,0l-0.5,0l-0.2-0.4
				c-2.8-5.7-6.3-8.9-8.2-10.3l-0.7-0.6l0.6-0.7c14.8-16.5,43.2-23.5,66.4-27.2c-6.4-36.2,1-51.2,16.8-51.2
				c26,0,78.7-6.7,106.4,21.1c27.7,27.7,256.1,29.7,296.8,29.7c40.7,0,108.8-57.5,132.6-51.4c23.7,6.1,50.9,9.2,50.9,21.8
				c0,4.9-3.8,10.3-9.2,17.3l14.9,18.4c12.2,4.5,24.7,10.4,36,20.5l0.4,0.4l-0.2,0.6c-1,2.4-1.8,5.1-2.6,8.7l-0.1,0.3l-0.3,0.2
				c-2.5,1.6-4.7,3.6-6.4,5.8l-0.2,0.2l-0.2,0.1c-0.5,0.2-1.1,0.4-1.6,0.6l0.3,3.1c0,0-8.7,27.8,9.3,50.9c18,23.1,34,44.5,95.3,77.8
				c61.3,33.3,124.4,28.6,139.9,29.8c15.6,1.2,49.6-13.9,62.7-26.9c7.2-7.2,12.5-19.3,15.8-28.7c1.1-6.3,1.5-13.7,0.6-18.8
				L1850.6,590.1z"/>
			<path class="st3" d="M1744,414c28.8,34.8,70.7,43.1,70.6,118.1c-11.7,26.9-57.2,36.7-83.4,36.7c-9.9,48.2-29.7,67.1-60.7,72.9
				c80.9,21.1,148.5,6.6,172.5-37.1l5.2-73.7C1836.7,477,1792.7,427,1744,414z"/>
			<path class="st3" d="M855.3,385.7c-64.4,13.8-111.3,54.1-128.3,71.2c21.7,78.1,14.1,122.4,5,147.3c69-31.4,96.7-98.6,93.3-102
				c-3.4-3.4-1.6-19.5-1.6-19.5l29-25.8L855.3,385.7z"/>
			<path class="st4" d="M1414.9,338.1c-153.1-11.8-284.6-16.5-370.8-13c91.4,0,400.2,23.7,417.4,23.7
				C1441.3,341,1414.9,338.1,1414.9,338.1z"/>
			<path class="st4" d="M1642.1,628.1c77.1,31.5,184.6,22.9,205.7-23.4C1855.2,638.3,1764.8,708.1,1642.1,628.1z"/>
			<path class="st4" d="M1773.8,445.6c41.9,58.9,57.8,86.9,5.8,108s-100.9,12.3-142.8,2.3c43.7,13.1,51.2,23,130.6,12.4
				S1821.7,476.5,1773.8,445.6z"/>
			<path class="st4" d="M1712.5,423.4c62.8,52.7,33.6,115-35,120.6c65.1,0,78.4-25.5,82-56.7C1763,456.1,1721.3,427.6,1712.5,423.4z
				"/>
			<path class="st4" d="M918.4,383.7c-111.2-5.1-162.5,27.8-203.6,82.6s-92.9,70.6-131.7,55.9c41.8,20.9,98.9,2.3,136.6-43.6
				S812.2,387.7,918.4,383.7z"/>
			<path class="st7" d="M821.7,556.7c-20.1,30.1-56.7,55.9-95.4,72.2c-38.7,16.3-79.5,26.2-101.5,27.7c-22,1.4-55,0.4-79.7-13.8
				c-18.9-10.9-28.7-31.3-33.2-40.3c-7.1,13.5-4.8,38,4.7,50.5l0.1,0.2c10.4,22.9,32.1,54.2,37.7,59.8c3.6,3.5,18.7,13.8,45.9,18.9
				c36.7,6.8,80.3,1.8,129.5-14.8c49.9-16.8,86.6-39.1,109.3-66.3c18.5-22.2,22.6-41.4,24.6-50.7c3.7-17.5-2.8-53.2-5.7-60.2
				l-0.1-0.1l0-0.1c-0.2-4-0.9-7.5-1.5-10.2c-0.2-0.7-0.3-1.4-0.4-2.1c-2.5-13.3-9.9-27.2-20.8-28
				C838.9,513.7,838.8,531.1,821.7,556.7z"/>
			<path class="st8" d="M767.8,637.3c9.2,9.2,8.7,49.3,1.2,63.5c32.3-13.2,67.2-45.7,73.9-55.6s16.2-32.3,18.1-51.8
				s-3.3-51.1-3.3-51.1c0-8.7-8.4-41.1-22.8-41.7c5.1,26.6-4.4,52.8-30.8,76.4C796.1,607.6,774.7,633.4,767.8,637.3z"/>
			<path class="st9" d="M855.1,537.2c-10.5,49.1-80.5,93-111,110.6C802.2,631.5,861.1,591.1,855.1,537.2z"/>
			<path class="st9" d="M510.2,623.4c5.7,33.1,87.1,68.1,199.8,38.7c-60.6,21.9-100,23.1-148.4,15.3c-25-4-44.8-24-48.2-29.8
				C510,641.8,510.2,623.4,510.2,623.4z"/>
			<path class="st5" d="M922.8,302c-11.5,3.4-19.3,8.1-24.9,21.7l80.3-12.2C966.9,294.3,937,297.8,922.8,302z"/>
			<path class="st5" d="M1499.6,325.9l-0.1-0.1c-13.4-20.8-48.6-24.8-67.9-18.6c-4.4,1.4-7.9,4.4-10.6,9.2c-0.5,0.8-0.9,1.7-1.4,2.6
				l83.7,15.1C1502.5,331.2,1501.2,328.4,1499.6,325.9z"/>
			<path class="st5" d="M1153.5,593.4c0,0,137.6-0.7,165.4-0.7c27.9,0,63.5-7.8,76-12c12.5-4.2,54.1-42.5,64.9-82.4
				c10.8-40,36.3-55.7,36.3-68.3c0-12.6-27.1-15.7-50.9-21.8c-23.7-6.1-91.8,51.4-132.6,51.4c-40.7,0-269.1-1.9-296.8-29.7
				c-27.7-27.7-80.4-21.1-106.4-21.1c-15.9,0-23.2,15.1-16.8,51.2c3.1-0.5,6.1-0.9,9-1.3l0.7-0.1l0.2,0.7
				c7.8,28.8,20.5,55.1,36.7,76c21.4,27.5,45.9,43.7,76.6,50.7c11.1,0.9,41.4,5.4,54.3,5.4C1083.7,591.5,1153.5,593.4,1153.5,593.4z
				"/>
			<path class="st12" d="M1044.7,506.2c58.6,27.4,115.2-6.3,168.9,6.1c53.6,12.4,134.2,17.6,150.3-0.6
				C1302,504.6,1079.1,494.2,1044.7,506.2z"/>
			<path class="st5" d="M757.5,928.7c-24.7,9.3-50.2,13-76.4,13c-52.5,0-107.8-14.9-165.2-30.5c-46.6-12.6-51.4-13.5-57.2-14.9
				c-0.1-1.1,0.1-1-2.8-23c-9.5-72.4-34.7-264.5,30.1-332.8c9.5-9.4,17.9-15.8,32.6-21.2l0.4-0.1l10-48.6l-0.3,0.1
				c-29.4,4.4-54.2,16.4-73.9,35.8c-17.5,17.3-31.4,41-41.2,70.3c-15.6,46.6-21.4,107.7-17.7,186.6c1.5,34.5,4.8,61,8.3,89.2
				c1.3,10.2,2.6,20.8,3.8,31.9l0.1,1.1l-1.1-0.2c-42.8-7.8-83.7-9.4-118.1-4.8c-43.2,5.9-77.3,21.4-101.2,46.2
				c-33.1,34.4-42.2,83.3-23.6,127.5c19,45.3,61.7,73.8,111.4,74.3c0.6,0,1.2,0,1.8,0c38.9,0,70.4-15.3,96.8-29.7l2.1-1.2
				c0.1-0.1,6.3-3.9,6.3-3.9l4.1-2.7c25.7-17.6,44-38.4,56.1-63.5c11.2-23.3,17-50.5,17.7-83.2l0-1.1c3.5,0.9,7.6,1.8,42.2,11.2
				c88,23.7,179.1,48.3,264.2,18.9l-9.1-44.7L757.5,928.7z M400.3,1004.1c-9.3,20.5-25.2,37.2-48.4,51.2
				c-20.9,12.6-38.7,18.6-50,21.4c-9.8,2.4-17.6,3.2-19.9,3.1l0,0l0,0c0,0,0,0-0.1,0v0c-0.1,0-0.5,0-1.1,0c-0.9,0-2,0-2.1,0
				c-1,0-1.9,0.1-2.9,0.1c-13.8,0-26.6-4.8-28.4-5.7l0,0c-0.2-0.1-3.5-1.6-3.7-1.7c-23.6-11.1-40.3-37-40.8-63l0-4.2l0.3-4.3
				c0.1-2.3,0.6-5.5,1.5-9.5c0.7-3.1,1.1-4.5,1.4-5.2h0c8.2-26.6,32.8-46.3,69-55.5c47.1-11.9,97.4-5.3,136,1.7l0.7,0.1
				C411.5,938.4,414.2,973.6,400.3,1004.1z"/>
			<path class="st6" d="M415.6,577c19.1,35.9,24.6,113.8,24.6,155.1c3.3-54.6,5.2-85,8.2-108.7c2.9-23.7,21.2-77.9,56.5-98.3
				c22.2-10.2,20.8-8.8,20.8-8.8l-14.3-29.2C478.2,497.6,442.2,507.4,415.6,577z"/>
			<path class="st12" d="M411.8,877.4c8.9,107.4,2.8,183.8-141.2,206.4C427.5,1066.3,441.2,997.1,411.8,877.4z"/>
			<path class="st12" d="M533.8,470.6c-136.7,18.5-136.7,187.8-136.7,224.8c14.5-76.5,36.9-187.5,136.7-210
				C538.5,480.7,533.8,470.6,533.8,470.6z"/>
			<g>
				<path class="st13" d="M1851.5,590.1c0.7-3,1.9-30.1-0.4-51.8c-5.2-47-25.8-76.7-65.2-103.6c-15.6-10.6-32.5-19-32.6-19
					c-42.1-20.8-79.4-33.7-80.7-34.1c0,0,0,0,0,0c0,0,0,0,0,0c-21.9-7.6-23.5-8.1-23.6-8.1c-44.2-14.2-83-25.7-144.6-38.9
					c-0.9-3.4-2.4-6.5-4.2-9.3c0,0,0,0,0,0h0c-13.5-20.9-48.4-25.5-68.9-18.9c-4.6,1.5-8.2,4.6-11.1,9.6c-0.5,0.9-1,1.8-1.4,2.8
					C1324,304,1264.5,301,1182,299.8c-0.1,0-5.9,0-6.2,0c-67.2,0.5-128.6,3-196.7,11.3c-11.5-17.7-41.6-14.4-56.5-10
					c-11.8,3.5-19.8,8.4-25.5,22.3c-56.4,10.2-95.5,21.6-205.8,55.7c-48.8,15.1-135.9,41.6-152.4,64.1c-4.7,6.8-8.3,18.5-10.4,26.5
					c-124.8,18.6-139.3,168-133.5,293.6c2.1,47.2,7.5,79.7,12.2,121.1c-75-13.6-167.3-13-220,41.7c-72.6,75.4-19,202.2,88.4,203.3
					c38,0.5,68.2-13,99-29.8l2.1-1.2c0.1-0.1,6.4-4,6.4-4l4.1-2.8c52.9-36.2,72.7-84.8,74.2-147.4c100.2,25.5,207.1,63.9,306,29.8
					c1.4,3.1,3,5.9,4.8,8.3c-3.7,54.1-25.6,356.7-18.2,408.5c1.1,0.8-4.9,30.9,85.4,47.2c59,10.6,96.1,9.6,364.2,15
					c305.6,5.2,331.2,4.5,348.4,1.7c35.5-5.4,70.1-22.6,82-56.3c6.6-18.7,8.4,4.3-18.7-530.6c-0.2-4.6-0.1-41.3-10.2-63.8
					c-4.4-9.8-22.4-28.9-30-34.5c-19.2-14.1-44.3-17.8-70.6-15.3h0c-12.5-0.2-72.7-39.6-93.7-74c-2.6-4.1-8-14.8-8.3-15.4
					c0,0,0,0,0,0c0,0,0,0,0,0c-1-2.3-8.5-16.9-16.3-39.5c-2.9-8.5-9.6-30-10.1-37.1c43.5-10.4,72.4-32.8,96.1-71.6
					c12-19.7,18.8-38.9,22.5-52.8c16,5.3,30.1,11.5,42.7,22.7c-1.2,2.9-2,5.8-2.6,8.9c-2.6,1.7-4.8,3.7-6.6,6
					c-14.6,5.2-23.6,24.1-24.7,39.9c-5.9,23.8-11,48.8-4.1,69.2c19.7,58.3,95.2,96.4,154,116.5c31.4,10.7,79.1,14.1,124.1,2.8l0-0.1
					c15.7-4.5,29.5-11.4,39-21c6.1-6.1,24.9-31.7,32.1-60.9c5.1-14.1,2.1-26.3,0.6-30.9C1851.4,609.7,1852.8,597.4,1851.5,590.1z
					 M1432.4,309.6c18.3-5.9,50.3-2.3,63.7,15.6c-13.3-0.4-54.8-2.2-72.6-8C1425.8,313.2,1428.8,310.7,1432.4,309.6z M923.5,304.5
					c6.3-1.9,18.5-4.1,30.1-2.9c-4.2,5.2-12.9,11.5-19.6,15.8c-11,1.7-21.9,3.5-32.8,5.4C906.2,311.6,913.1,307.6,923.5,304.5z
					 M383.2,1085.8l-4,2.7c-0.1,0.1-5.8,3.6-6.1,3.8c-0.1,0-5.9,3.4-6.3,3.6c-40.6,22.2-84.5,35.4-128.6,20.5
					c-39-13.1-70.8-48.2-77.2-94.3c-2.6-20.8,1.3-37.1,1.6-37.9c2.3-2.3,4.2-51.5,71.7-84.1c50.6-23.8,118.6-21.2,173.3-12
					c1.5,13.3,2.8,27.4,3.3,41.8c-57.5-11.6-136.6-18.7-183.4,17.5c16.3-14.1,36.7-22.8,57.6-27.3c0.1,0,7.3-1.5,6.9-1.4
					c0.1,0,7-1.1,7-1.1c12.7-2,27-2.1,31.8-2.3c-30.1-3.6-60.4-0.9-87.4,13.3c29.3-16.3,58.3-19.7,92.7-21.2
					c-34.2-3.7-67.8,0.2-97.7,16.5c31.8-18.3,66.5-22.9,103-24.4c-36.2-3.6-73.3,0.9-105.8,18.4C270,898.2,308,893,346.7,891.5
					c-106.2-10-148.7,48.4-149.5,48.9c-0.5,0.6-1,1.1-1.4,1.7c-0.1,0.1-3.8,4.9-4.1,5.2c0,0,0,0,0,0c-20.5,27.6-25.5,66.5-8.9,101.7
					c-10.8-33.8-7.9-67.3,12.9-96.2c1.4-1.9,5.2-6.8,5.4-6.9c-0.1,0.2-1,1.3-3.1,4.1c-20.9,27.4-25.4,65.8-8.3,99.1
					c-12.6-36.4-6.4-69.8,14.5-96.4c-0.6,0.8-1.8,2.4-1.9,2.5c-0.8,1.1-1.1,1.6-1.8,2.6c-19.4,29.6-19.1,64.1-4,91.2
					c-10.2-27-6.1-47.9-6.1-47.8c0-0.1,0.4-2.7,0.4-2.7c0.1-0.3,0.4-2.3,0.5-2.7c2.3-11.5,6.8-22.4,13.1-32.1
					c1.3-1.9,2.2-3.1,2.3-3.2c-0.1,0.1-0.5,0.8-1.4,2.2c-0.3,0.5-8.9,12.7-12.1,30.6l-0.3,1.8c-0.1,0.6-0.2,1.2-0.2,1.8
					c0,0.1-0.5,4.2-0.5,4.5c0,0.1-0.1,2.6-0.1,2.7c-0.7,16.4,3.8,32.3,11.5,44.9c-11.6-28.2-6.1-49.4-5.3-53.2
					c-5.5,33.7,12.7,68.1,42.8,82.4c4.2,2.1,5.6,2.5,8.5,3.6c15.5,5.7,32.9,4.5,32.9,4.5c0.3,0,5.7-0.5,5.7-0.5
					c22.6-2.3,48.1-13.3,67.3-24.8c100.8-60.4,52.3-158.4,46-315.7c-3.8-116.7,10.7-251.7,126.3-272.1c-0.3,1.2-0.6,2.4-0.8,3.6
					c-7.3,1.7-14.4,3.9-21.4,6.6c-9.5,3.7-18.7,8.4-27.2,14.1c-8.5,5.7-16.2,12.4-23.1,20c-6.8,7.5-12.7,15.8-17.7,24.6
					c-9.9,17.6-16,36.9-19.9,56.4c-3.9,19.6-5.3,39.4-5.6,59.2c1.1-19.8,3.4-39.5,8.1-58.7c4.7-19.1,11.5-37.8,21.8-54.4
					c10.2-16.6,24.1-30.7,40.5-40.8c3.9-2.3,7.8-4.5,11.9-6.4c-3,1.6-5.9,3.3-8.7,5.1c-0.5,0.3-2.1,1.3-2.6,1.7
					c-0.3,0.2-1,0.7-1.3,0.9c-0.3,0.2-1,0.7-1.3,0.9c-3.4,2.4-6.6,5-9.7,7.7c-3.8,3.4-7.3,7-10.6,10.8c-2,2.4-4,4.8-5.8,7.4
					c-4.7,6.5-8.8,13.5-12.4,20.7c-8.9,17.7-14.3,36.7-17.9,55.9c-3.5,19.3-5,38.8-5.5,58.2c1.3-19.4,3.7-38.8,8-57.7
					c4.3-18.9,10.5-37.4,19.9-54.1c4.7-8.4,10.2-16.3,16.5-23.4c6.2-7.1,13.3-13.3,21-18.6c3-2,6.1-3.9,9.3-5.6
					c-0.1,0.1-0.3,0.2-0.4,0.2c-0.3,0.2-2.6,1.6-2.9,1.8c-0.1,0.1-1.3,0.8-1.4,0.9c-0.1,0.1-1.3,0.9-1.4,1
					c-3.8,2.5-7.3,5.4-10.7,8.3c-4.1,3.7-7.9,7.8-11.4,12c-2.2,2.7-4.2,5.4-6.1,8.2c-4.9,7.4-9,15.2-12.5,23.2
					c-7.9,17.7-12.6,36.5-15.9,55.4c-3.2,18.9-4.7,38.1-5.4,57.2c1.5-19.1,3.9-38.1,7.9-56.7c4.1-18.6,9.6-36.9,18-53.7
					c4.2-8.4,9.1-16.4,14.9-23.8c5.7-7.3,12.3-13.8,19.6-19.3c2.3-1.7,4.7-3.3,7.2-4.8c-3.7,2.5-7.2,5.3-10.5,8.2
					c-7.2,6.6-13.4,14.2-18.5,22.4c-5.1,8.2-9.2,16.8-12.7,25.7c-6.9,17.8-11,36.3-13.9,54.9c-2.8,18.6-4.4,37.4-5.3,56.1
					c1.7-18.7,4.1-37.3,7.8-55.7c3.8-18.3,8.6-36.5,16.1-53.4c3.7-8.5,8.1-16.6,13.3-24.2c5.2-7.5,11.3-14.3,18.2-20.1
					c3.5-2.8,7.1-5.5,11-7.7l1.4-0.9l1.5-0.8l3-1.6c2-0.9,4-1.9,6.1-2.7c3-1.3,6.2-2.3,9.4-3.3c-0.1,0.6-0.2,1.2-0.3,1.7
					c-18.7,6.1-26.2,14-31.3,17.7c-0.5,0.5-4.5,4.3-4.5,4.3c-47.2,48.4-47.9,155.9-45,223.4C445.1,888.6,492,1010.8,383.2,1085.8z
					 M278.8,1079c-16,0.8-30.9-5.5-30.9-5.5c-0.2-0.1-3.6-1.7-3.8-1.8c-23.3-10.9-39.8-36.7-40.3-62.2l0-4.2l0.3-4.2
					c0.2-5.6,2.9-14.4,2.9-14.4c9.3-29.9,37.3-47,68.4-54.9c43.8-11,91.4-6.3,135.7,1.7c1.2,54.6-11.8,92.4-59.5,121.1
					c-41.3,24.9-71.1,24.5-69.5,24.4C281.9,1078.9,279,1079,278.8,1079z M831.3,498.3c1.4,2.4,2.6,5.3,3.5,8.8
					c2.1,8.8,2,23.6-10.9,43.5c-29.2,45.2-81.3,77.6-155,96.4c-24.8,6.3-45.6,8.8-63,8.8c-48,0-70.1-19.1-78.5-29.4
					c-6.2-7.6-10.1-15.9-12.4-23.6c14.4,25,46.9,50,83.3,50c43.2,0,112.6-20,160.9-47.9C807.5,577,838.4,535.1,831.3,498.3z
					 M836.8,502.2c8.5,2.1,14.5,14.3,16.6,25.6c1.7,9.3,5.1,20.9-5.9,39.5c-12.8,21.7-41.7,45.6-85.9,71.1
					c-51.4,29.7-103.9,40.2-147.2,40.2c-48.1,0-84.7-13-95.7-27.1c-8.4-10.8-10.9-31.5-6-44.6c13.6,38.6,52.5,52.2,93.2,52.2
					c19.1,0,40.5-3,63.8-8.9c74.5-19,127.4-51.9,157-97.9C836.4,537.4,842.9,519,836.8,502.2z M844.1,588.4
					c-18.2,26.2-44.3,47.1-71.9,63.2c26.6-13.3,52.1-30.8,71.8-53.2c-19.3,27.1-46.9,48.4-76.3,64.6c28.5-13.3,55.5-31.2,76.4-54.6
					c-20.6,28.2-49.9,50-80.9,65.9c30-13.1,58.8-31.4,81.1-55.9c-21.9,29.2-52.8,51.4-85.6,67.2c32.1-13.1,62.5-31.9,85.9-57.2
					c-23.3,30.3-56,52.9-90.4,68.5c33.4-12.7,65.2-31.6,90-57.6c-25.6,37.5-72.7,60.7-115.5,75.2C680.1,731,637,736,600.7,729.2
					c-16.8-3.1-28.4-8.1-35.5-12c41.1,14.1,85.7,12.3,127.4,1.6c-22.3,4.4-68.4,7.5-101-0.6c-4.1-1-8.1-2.2-12.1-3.5
					c36.2,8.4,76.2,5.4,112.6-4.3c-38.3,7.9-79.7,8.6-116.7-3.4c37,8.7,79.2,5.1,116.1-5c-38.6,8.3-82,9.6-120.1-2.6
					c38.1,8.9,82.2,4.8,119.5-5.7c-39.4,8.9-84.6,10.5-123.3-1.8c38.7,8.9,84.2,4.6,122.7-6.5c-39.9,9.3-86.7,11.5-126.2-0.9
					c40.2,8.9,86.4,4.1,125.6-7.5c-44.3,10.8-98.5,13.1-141.4-4.4c48.3,16,135.5,14.7,215.2-31.3c25.4-14.7,64-39.1,83.4-66.6
					c-17.1,26.8-42.7,48.5-70,65.5C801.6,627,825.5,610,844.1,588.4z M742.3,950.7c-56.2,17.2-155.5,1.1-211.4-14.3
					c47.1,15.1,113.4,28.3,163.5,28.5c8.5,0,16.9-0.3,25.3-1.2c1.1-0.1,2.1-0.3,3.2-0.4c7.8-1,13.4-2.1,24.1-5.1
					c-7.8,2.7-15.2,4.9-27.3,6.6c-7.2,1-14.4,1.7-21.7,2.1c-2.7,0.1-5.5,0.2-8.2,0.3c-55.2,1.3-128.9-11.7-180.7-27.3
					c34.9,12,80.4,23.2,123.3,29.3c19.6,2.9,39.5,4.8,59.4,5c6,0,11.9-0.1,17.9-0.4c4-0.2,8.1-0.6,12.1-1.1c1.3-0.1,2.5-0.3,3.8-0.5
					c14.1-2.2,20.4-4.6,22.1-5.2c-2,0.7-6.6,3.1-20.9,6c-1.4,0.3-2.7,0.6-4.1,0.8c-11,1.8-22.3,2.6-33.6,2.9
					c-22.7,0.5-45.4-1.3-68.1-4.1c-47.5-5.9-96.3-17.1-133.8-29.2c37,13.4,85.6,26.2,133.2,33.8c22.7,3.6,45.6,6.1,68.8,6.4
					c3.8,0,7.7,0,11.5-0.1c-79.1,4.8-161.4-23-239.1-42.8c0.2-13.9-0.5-27.8-1.6-41.6c104.4,25.6,206.7,65.8,297.7,32.2
					c0.1,1.4,0.3,2.8,0.4,4.4c-7.4,3.6-15.4,6.2-23.6,8.2c-38.9,9.1-90.3,4.9-129.9-1.1c-17.3-2.7-34.6-5.9-51.6-10.1
					C603.8,947.8,688.3,963.4,742.3,950.7z M757,926.7l0.2,0c0,0.4,0,0.8,0.1,1.2c-89.9,33.7-191.2-6.3-297.7-32.3
					c-3.4-38.5-46.3-277.1,27.2-354.6c9.6-9.5,18-15.8,32.3-21c-3.5,22.3-5.7,38.8-8.7,54.3c-1.3,3.5-1.8,8.7-1.4,14.6c0,0,0,0,0,0
					c0,0,0,0,0,0c0.3,4.1,1,8.5,2.3,13.1c-7.2,13.7-4.9,38.7,4.8,51.4c10.4,23,32.2,54.4,37.8,60c3.6,3.6,18.9,14,46.3,19.1
					c42.6,7.9,88.9-1,129.9-14.8c50-16.9,86.9-39.2,109.7-66.5c18.7-22.3,22.8-41.7,24.7-51c3.9-18.2-3-54.1-5.7-60.7
					c-0.2-5.2-1.3-9.3-1.9-12.4c-2.6-13.9-10.2-27.8-21.6-28.7c-2.4-4.9-5.6-8.5-8.4-10.6c16.5-18.4,50.7-25,74.9-28.2
					c7.8,29,20.4,55.1,36.9,76.3c24.9,32,53,47,84.8,52.5c-14.7,54.9-36.9,104.9-83.9,136.5c-23.5,15.9-52.5,16-77.4,21.3
					c-9.2,2-17.4,4.6-23.9,7.2c-0.8,0-2.2,0.6-4,1.6c-8.7,3.7-13.7,6.8-13.7,6.8c-2.9,2.2-8,4.5-13.7,14.3
					c-11.7,19.5-23.5,93.8-26.9,116.4h-19.6L757,926.7z M929.2,516.1c7.4,10.9,16.6,23.4,25.2,32.7
					C944.8,539.2,936.4,528.1,929.2,516.1z M760.7,923.5l2.6-27.5h16c-1.2,8.1-2.8,19.9-3.5,28.1L760.7,923.5z M777.9,1134.6
					c-0.5,13.7-0.8,27.5-1,41.2c-0.2,10.7-0.3,21.4-0.3,32.1c-0.3-12.2-0.6-24.4-0.7-36.6c-0.2-15.2-0.3-30.4-0.3-45.6
					c-1,15.2-1.9,30.4-2.7,45.6c-0.6,12-1.2,24.1-1.6,36.1c0.1-13.5,0.3-27,0.6-40.5c0.3-16.7,0.8-33.4,1.3-50.1
					c-1.5,16.7-2.9,33.3-4.3,50c-1.1,13.4-2.1,26.9-3,40.3c0.5-14.9,1.2-29.7,1.9-44.6c0.9-18.2,1.9-36.4,2.9-54.6
					c-1.7,15.3-3.4,30.6-5,45.9c5.7-106.8,12.7-211.6,13.8-226c0.5-8.7,2.6-24.1,3.8-32.7c2.2-15.2,4.7-31.1,7.6-46.9
					c-4.6,54.6-11.4,244.2-11.1,327.4C779.1,1161.8,778.5,1148.2,777.9,1134.6z M1406.9,1281.2c23.7,0.6,47.4,0.9,71.2,0.7
					c2,0,5,0,6.9-0.1c2,0,5-0.1,6.9-0.1c2,0,5-0.1,6.9-0.1c1,0,2.5,0,3.5-0.1c1,0,2.5-0.1,3.5-0.1c3.9-0.1,9.9-0.2,13.9-0.4
					c4-0.1,9.9-0.3,13.9-0.5c12.9-0.5,25.8-1.3,38.7-2.2c-13.4,2.1-26.8,4-40.3,5.7c-3.1,0.4-10.1,1.2-13.2,1.6
					c-3.1,0.4-10.1,1.1-13.2,1.5c-0.8,0.1-2.5,0.3-3.3,0.3c-0.8,0.1-2.5,0.2-3.3,0.3c-1.5,0.2-5.1,0.5-6.6,0.7
					c-1.5,0.2-5.1,0.5-6.6,0.6c-1.5,0.2-5.1,0.4-6.6,0.6c-4.4,0.4-8.9,0.8-13.3,1.1c-13.3,1.1-26.5,2-39.8,2.9
					c-8.9,0.5-17.7,1-26.6,1.5c-8.9,0.4-17.8,0.8-26.6,1.1c-3.5,0.7-7.1,1.3-10.7,1.8c12,0.6,24,1,36,1.4c24,0.7,48.1,1.1,72.2,1
					c1.8,0,5.5,0,7.3,0c1.7,0,5.5,0,7.3-0.1c1.7,0,5.5,0,7.3-0.1c0.9,0,2.8,0,3.6-0.1c0.9,0,2.8,0,3.6-0.1
					c3.5-0.1,11.1-0.2,14.6-0.3c3.5-0.1,11.1-0.3,14.6-0.5c13.6-0.5,27.3-1.2,41-2.2c-14.3,2.2-28.7,4.1-43.1,5.8
					c-2.7,0.4-11.3,1.2-14,1.6c-2.7,0.4-11.4,1.1-14.1,1.4c-0.7,0.1-2.8,0.3-3.5,0.3c-0.7,0.1-2.8,0.2-3.5,0.3
					c-1.4,0.2-5.7,0.5-7,0.6c-1.4,0.2-5.7,0.5-7,0.6c-1.3,0.2-5.7,0.4-7.1,0.6c-4.7,0.4-9.4,0.7-14.1,1.1c-14.1,1-28.2,1.9-42.4,2.6
					c-9.4,0.5-18.9,0.9-28.3,1.3c-9.4,0.4-18.9,0.7-28.3,0.8c-1.5,0.8-2.9,1.4-4.3,2c12.2,0.6,24.3,1.1,36.5,1.5
					c24.4,0.8,48.8,1.3,73.2,1.3c1.5,0,6.1,0,7.6,0c1.5,0,6.1,0,7.6,0c1.5,0,6.1,0,7.6-0.1c0.8,0,3,0,3.8,0c0.8,0,3,0,3.8-0.1
					c3.1-0.1,12.2-0.2,15.3-0.3c3.1-0.1,12.2-0.3,15.3-0.5c14.4-0.5,28.8-1.2,43.3-2.2c-15.2,2.3-30.6,4.2-45.9,5.9
					c-2.3,0.3-12.6,1.3-14.9,1.6c-2.3,0.3-12.6,1.1-14.9,1.4c-0.6,0.1-3.2,0.3-3.7,0.3c-0.6,0.1-3.2,0.2-3.7,0.3
					c-1.2,0.1-6.3,0.5-7.5,0.6s-6.3,0.5-7.5,0.6c-1.2,0.1-6.3,0.4-7.5,0.5c-5,0.4-10,0.7-15,1c-14.9,1-29.9,1.8-44.9,2.4
					c-10,0.4-20,0.8-30,1.1c-10,0.3-20,0.5-30,0.6c0.7,0.8,1.3,1.6,2,2.2c12.3,0.7,24.7,1.2,37,1.7c24.7,0.9,49.5,1.5,74.2,1.6
					c1.3,0,6.6,0.1,8,0c1.3,0,6.7,0,8,0c1.3,0,6.7,0,8,0c0.7,0,3.3,0,4,0c0.7,0,3.3,0,4-0.1c2.6-0.1,13.3-0.2,16-0.3
					c2.6-0.1,13.3-0.3,16-0.4c15.2-0.5,30.4-1.2,45.6-2.3c-16.2,2.3-32.4,4.3-48.7,6c-1.9,0.3-13.8,1.3-15.7,1.6
					c-1.9,0.3-13.8,1.1-15.7,1.4c-0.5,0.1-3.5,0.3-3.9,0.3c-0.5,0.1-3.5,0.2-3.9,0.3c-1,0.1-6.9,0.5-7.9,0.6c-1,0.1-6.9,0.5-7.9,0.6
					c-1,0.1-6.9,0.4-7.9,0.5c-5.3,0.3-10.5,0.7-15.8,1c-15.8,0.9-31.6,1.6-47.4,2.2c-10.6,0.3-21.1,0.6-31.7,0.8
					c-10.6,0.2-21.1,0.3-31.7,0.3c2.8,0.9,5.6,1.7,8.3,2.4c12.5,0.7,25,1.3,37.5,1.8c25.1,1,50.1,1.7,75.2,1.8
					c1.1,0,7.2,0.1,8.3,0.1c1.1,0,7.2,0,8.3,0c1.1,0,7.2,0,8.3,0c0.6,0,3.6,0,4.2,0c0.5,0,3.6,0,4.2-0.1c2.2-0.1,14.5-0.1,16.7-0.2
					c2.2-0.1,14.5-0.3,16.7-0.4c15.9-0.5,31.9-1.2,47.9-2.3c-17.1,2.4-34.3,4.4-51.6,6.1c-1.5,0.2-15,1.3-16.6,1.5
					c-1.5,0.2-15,1.1-16.6,1.3c-0.4,0.1-3.8,0.3-4.1,0.3c-0.4,0.1-3.8,0.2-4.2,0.3c-0.8,0.1-7.5,0.5-8.3,0.6
					c-0.8,0.1-7.5,0.5-8.3,0.6c-0.8,0.1-7.5,0.4-8.3,0.5c-5.6,0.3-11.1,0.6-16.7,0.9c-16.6,0.8-33.3,1.5-49.9,1.9
					c-11.1,0.3-22.2,0.5-33.4,0.6c-11.1,0.1-22.2,0.2-33.4,0.1c4.9,1,9.8,1.9,14.7,2.6c12.7,0.8,25.3,1.4,38,2
					c25.4,1.1,50.8,1.9,76.3,2.1c0.9,0,7.8,0.1,8.7,0.1c0.9,0,7.8,0.1,8.7,0c0.9,0,7.8,0,8.7,0c0.4,0,3.9,0,4.3,0c0.4,0,3.9,0,4.3,0
					c1.8,0,15.6-0.1,17.4-0.2c1.8-0.1,15.6-0.3,17.4-0.4c16.7-0.5,33.5-1.2,50.2-2.3c-18.1,2.5-36.2,4.5-54.5,6.2
					c-1.1,0.2-16.2,1.4-17.4,1.5c-1.2,0.2-16.3,1.2-17.4,1.3c-0.3,0-4.1,0.3-4.4,0.3c-0.3,0-4.1,0.2-4.4,0.3
					c-0.6,0.1-8.2,0.5-8.7,0.5c-0.6,0.1-8.2,0.5-8.7,0.5c-0.6,0.1-8.2,0.4-8.7,0.4c-5.8,0.3-11.7,0.6-17.5,0.8
					c-17.5,0.8-35,1.3-52.5,1.7c-11.7,0.2-23.4,0.4-35,0.4c-11.7,0.1-23.4,0-35-0.2c7,1.1,14,2,21,2.8c12.8,0.8,25.7,1.5,38.6,2.2
					c25.7,1.2,51.5,2,77.3,2.4c0.7,0,8.4,0.2,9,0.1c0.7,0,8.4,0.1,9,0.1c0.7,0,8.4,0.1,9,0c0.3,0,4.2,0,4.5,0c0.3,0,4.2,0,4.5,0
					c1.3,0,16.7-0.1,18-0.1c1.3-0.1,16.7-0.3,18.1-0.4c17.5-0.5,35-1.2,52.6-2.3c-19,2.5-38.1,4.6-57.3,6.3
					c-0.8,0.1-17.5,1.4-18.2,1.5c-0.8,0.1-17.5,1.2-18.3,1.3c-0.2,0-4.4,0.3-4.6,0.3c-0.2,0-4.4,0.2-4.6,0.3c-0.4,0-8.8,0.5-9.2,0.5
					c-0.4,0-8.8,0.5-9.2,0.5c-0.4,0-8.8,0.4-9.2,0.4c-6.1,0.3-12.2,0.6-18.3,0.8c-18.3,0.7-36.7,1.2-55,1.5
					c-12.2,0.2-24.5,0.3-36.7,0.2c-12.2,0-24.5-0.2-36.7-0.5c9.1,1.2,18.2,2.2,27.3,3c13,0.9,26,1.6,39.1,2.3
					c26.1,1.3,52.2,2.2,78.3,2.7c0.4,0,8.9,0.2,9.4,0.2c0.4,0,8.9,0.1,9.4,0.1c0.4,0,8.9,0.1,9.4,0.1c0.2,0,4.5,0,4.7,0
					c0.2,0,4.5,0,4.7,0c0.9,0,17.9-0.1,18.7-0.1c0.9,0,17.9-0.3,18.8-0.3c18.3-0.5,36.6-1.2,54.9-2.4c-20,2.6-40,4.7-60.2,6.4
					c-0.4,0.1-18.7,1.5-19.1,1.5c-0.4,0.1-18.7,1.2-19.1,1.3c-0.1,0-4.7,0.3-4.8,0.3c-0.1,0-4.7,0.2-4.8,0.3c-0.2,0-9.4,0.5-9.6,0.5
					c-0.2,0-9.4,0.5-9.6,0.5c-0.2,0-9.4,0.4-9.6,0.4c-6.4,0.3-12.8,0.5-19.2,0.7c-19.2,0.7-38.4,1.1-57.5,1.2
					c-12.8,0.1-25.6,0.1-38.4,0c-12.8-0.1-25.6-0.3-38.4-0.7c11.2,1.3,22.4,2.3,33.7,3.2c13.2,1,26.4,1.7,39.6,2.5
					c26.4,1.4,52.8,2.4,79.3,2.9c0.2,0,9.5,0.2,9.7,0.2c0.2,0,9.5,0.1,9.7,0.1c0.2,0,9.5,0.1,9.7,0.1c0.1,0,4.7,0.1,4.9,0.1
					c0.1,0,4.7,0,4.9,0c0.4,0,19,0,19.4-0.1c0.4,0,19-0.3,19.4-0.3c19.1-0.4,38.2-1.2,57.3-2.4c-20.9,2.7-42,4.8-63.1,6.5l-19.9,1.5
					l-20,1.2l-5,0.3l-5,0.2l-10,0.5l-10,0.5l-10,0.4c-26.7,1-53.4,1.6-80.1,1.7c-13.4,0-26.7,0-40.1-0.2c-13.4-0.2-26.7-0.5-40.1-1
					c13.3,1.4,26.6,2.5,40,3.4c13.3,1,26.7,1.9,40.1,2.6c0.1,0,0.2,0,0.3,0c-72.2-0.9-159-2.1-256.2-3.3
					c-138.1-2-159.7-2.2-198.2-6.4c-11.7-1.3-22.1-2.8-31.5-4.4c15.2,1.5,30.3,2.8,45.5,3.8l20.1,1.3l20.1,1l5,0.2l5,0.2l10,0.4
					l10.1,0.4l10,0.3c26.8,0.7,53.6,1,80.4,0.8c13.4-0.1,26.8-0.2,40.1-0.6c13.4-0.3,26.8-0.7,40.1-1.4c-13.4-0.2-26.7-0.6-40.1-1.1
					c-13.4-0.5-26.7-1.2-40-1.9c-26.7-1.5-53.3-3.4-79.9-5.7l-10-0.9l-10-1l-10-1l-5-0.5l-5-0.6l-19.9-2.2l-19.8-2.5
					c-17.5-2.3-34.9-4.8-52.2-7.7c16.1,1.7,32.3,3,48.4,4.2c0.6,0,19.3,1.2,19.8,1.3c0.6,0,19.3,1,19.8,1c0.1,0,4.7,0.2,4.8,0.2
					c0.1,0,4.7,0.2,4.8,0.2c0.2,0,9.4,0.4,9.6,0.4c0.2,0,9.4,0.3,9.6,0.4c0.2,0,9.4,0.3,9.6,0.3c25.5,0.7,51,1,76.5,0.9
					c12.7-0.1,25.5-0.2,38.2-0.5c12.7-0.2,25.5-0.6,38.2-1.2c-12.9-0.2-25.8-0.7-38.7-1.3c-12.9-0.6-25.8-1.3-38.6-2
					c-25.7-1.5-51.5-3.5-77.1-5.9c-0.2,0-9.4-0.9-9.6-0.9c-0.2,0-9.4-0.9-9.6-1c-0.2,0-9.4-1-9.6-1c-0.1,0-4.7-0.5-4.8-0.5
					c-0.1,0-4.7-0.5-4.8-0.6c-0.4-0.1-18.7-2.1-19.2-2.2c-0.4-0.1-18.7-2.4-19.1-2.5c-16.8-2.3-33.6-4.8-50.2-7.6
					c16,1.7,32.1,3,48.1,4.2c1.2,0.1,18.4,1.2,19.6,1.3c1.2,0.1,18.4,1,19.6,1c0.2,0,4.4,0.2,4.5,0.2c0.2,0,4.4,0.2,4.6,0.2
					c0.3,0,8.7,0.3,9.1,0.4c0.3,0,8.7,0.3,9.1,0.4c0.3,0,8.7,0.2,9.1,0.3c24.2,0.7,48.5,1,72.7,1c12.1,0,24.2-0.1,36.3-0.3
					c12.1-0.2,24.2-0.5,36.3-1c-12.4-0.3-24.9-0.8-37.3-1.5c-12.4-0.6-24.8-1.3-37.2-2.1c-24.8-1.6-49.6-3.6-74.3-6
					c-0.4-0.1-8.8-0.8-9.3-0.9c-0.4-0.1-8.8-0.9-9.3-1s-8.8-0.9-9.3-1c-0.2,0-4.4-0.5-4.6-0.5c-0.2,0-4.4-0.5-4.6-0.6
					c-0.9-0.1-17.6-2.1-18.5-2.2s-17.6-2.3-18.4-2.4c-16.1-2.2-32.2-4.7-48.3-7.5c15.9,1.7,31.9,3,47.8,4.2
					c1.7,0.1,17.6,1.2,19.3,1.3c1.8,0.1,17.6,0.9,19.3,1c0.3,0,4,0.2,4.3,0.2c0.3,0,4,0.2,4.3,0.2c0.5,0,8.1,0.3,8.6,0.4
					c0.5,0,8.1,0.3,8.6,0.3c0.5,0,8.1,0.2,8.6,0.3c23,0.7,45.9,1.1,68.9,1.1c11.5,0,22.9-0.1,34.4-0.2c11.5-0.2,22.9-0.4,34.4-0.8
					c-12-0.4-23.9-1-35.9-1.6c-12-0.7-23.9-1.4-35.8-2.3c-23.9-1.7-47.7-3.8-71.5-6.2c-0.6-0.1-8.3-0.8-8.9-0.9
					c-0.6-0.1-8.3-0.9-8.9-1c-0.7-0.1-8.3-0.9-8.9-1c-0.3-0.1-4.1-0.5-4.4-0.5s-4.1-0.5-4.4-0.5c-1.3-0.2-16.5-2-17.8-2.2
					c-1.3-0.2-16.4-2.2-17.7-2.4c-15.5-2.2-31-4.7-46.3-7.4c15.9,1.7,31.7,3.1,47.6,4.2c2.3,0.2,16.7,1.1,19.1,1.3
					c2.3,0.2,16.7,0.9,19.1,1.1c0.3,0,3.7,0.2,4.1,0.2c0.3,0,3.7,0.2,4.1,0.2c0.7,0,7.4,0.3,8.1,0.3c0.7,0,7.4,0.3,8.1,0.3
					c0.7,0,7.4,0.2,8.1,0.3c21.7,0.7,43.4,1.1,65,1.2c10.8,0,21.7,0,32.5-0.1c10.8-0.1,21.6-0.3,32.5-0.7c-11.5-0.5-23-1.1-34.5-1.8
					c-11.5-0.7-23-1.5-34.5-2.4c-22.9-1.8-45.9-3.9-68.7-6.4c-0.9-0.1-7.7-0.8-8.6-0.9c-0.9-0.1-7.7-0.9-8.6-1
					c-0.9-0.1-7.7-0.9-8.6-1c-0.4-0.1-3.8-0.4-4.3-0.5c-0.4-0.1-3.8-0.5-4.3-0.5c-1.7-0.3-15.4-1.9-17.1-2.2
					c-1.7-0.3-15.3-2.1-17-2.4c-14.9-2.2-29.7-4.6-44.4-7.3c15.8,1.7,31.6,3.1,47.4,4.3c2.9,0.2,15.9,1.1,18.8,1.3
					c2.9,0.2,15.9,0.9,18.8,1.1c0.4,0,3.4,0.2,3.8,0.2c0.4,0,3.4,0.1,3.8,0.2c0.9,0.1,6.8,0.3,7.7,0.3c0.9,0.1,6.8,0.3,7.7,0.3
					c0.9,0.1,6.8,0.2,7.7,0.3c20.4,0.7,40.8,1.1,61.2,1.2c10.2,0.1,20.4,0.1,30.6,0c10.2-0.1,20.4-0.2,30.6-0.5
					c-11-0.5-22.1-1.2-33.1-2c-11-0.8-22-1.6-33.1-2.5c-22-1.9-44-4-65.9-6.5c-1.1-0.2-7.1-0.8-8.2-0.9c-1.1-0.2-7.1-0.8-8.2-1
					c-1.1-0.2-7.1-0.8-8.2-1c-0.5-0.1-3.6-0.4-4.1-0.5c-0.5-0.1-3.6-0.5-4.1-0.5c-2.1-0.4-14.2-1.8-16.4-2.2
					c-2.1-0.4-14.2-2-16.3-2.4c-14.2-2.2-28.5-4.6-42.6-7.2c15.7,1.7,31.5,3.1,47.2,4.3c3.5,0.3,15,1.1,18.5,1.3
					c3.5,0.2,15,0.9,18.6,1.1c0.5,0,3.1,0.2,3.6,0.2c0.5,0,3.1,0.1,3.6,0.2c1.1,0.1,6.1,0.3,7.2,0.3c1.1,0.1,6.1,0.3,7.2,0.3
					c1.1,0.1,6.1,0.2,7.2,0.3c19.1,0.7,38.3,1.1,57.4,1.3c9.6,0.1,19.1,0.1,28.7,0.1c9.6,0,19.1-0.1,28.6-0.3
					c-10.6-0.6-21.1-1.4-31.7-2.2c-10.6-0.8-21.1-1.7-31.6-2.7c-21.1-1.9-42.1-4.1-63.1-6.7c-1.3-0.2-6.6-0.8-7.9-1
					c-1.3-0.2-6.6-0.8-7.9-1c-1.3-0.2-6.6-0.8-7.9-1c-0.6-0.1-3.3-0.4-3.9-0.5c-0.6-0.1-3.3-0.4-3.9-0.5c-2.6-0.4-13.1-1.8-15.7-2.2
					c-2.6-0.5-13.1-1.9-15.6-2.4c-13.6-2.2-27.2-4.5-40.8-7.1c15.7,1.7,31.4,3.2,47.1,4.4c4.1,0.3,14.2,1,18.3,1.3
					c4.1,0.3,14.2,0.8,18.3,1.1c0.6,0,2.7,0.2,3.4,0.2c0.6,0,2.7,0.1,3.3,0.2c1.2,0.1,5.5,0.3,6.7,0.3c1.2,0.1,5.5,0.2,6.7,0.3
					c1.2,0.1,5.5,0.2,6.7,0.3c17.8,0.7,35.7,1.2,53.5,1.4c8.9,0.1,17.8,0.2,26.7,0.2c8.9,0,17.8,0,26.7-0.2
					c-10.1-0.7-20.2-1.5-30.3-2.4c-10.1-0.9-20.2-1.8-30.3-2.8c-20.1-2-40.2-4.3-60.3-6.8c-1.5-0.2-6-0.7-7.5-1
					c-1.5-0.2-6-0.8-7.5-1c-1.5-0.2-6-0.8-7.5-1c-0.8-0.1-3-0.4-3.8-0.5c-0.7-0.1-3-0.4-3.7-0.5c-3-0.5-12-1.7-15-2.2
					c-3-0.5-11.9-1.8-14.9-2.4c-13-2.1-26-4.5-38.9-7c15.7,1.7,31.3,3.2,47,4.4c4.7,0.4,13.3,1,18,1.3c4.7,0.3,13.4,0.8,18,1.1
					c0.7,0,2.4,0.1,3.1,0.2c0.7,0,2.4,0.1,3.1,0.2c1.4,0.1,4.8,0.2,6.2,0.3c1.4,0.1,4.8,0.2,6.2,0.3c1.4,0.1,4.8,0.2,6.2,0.3
					c16.6,0.7,33.1,1.2,49.7,1.5c8.3,0.1,16.6,0.3,24.8,0.3c8.3,0.1,16.5,0.1,24.8,0c-9.6-0.8-19.3-1.6-28.9-2.5
					c-9.6-0.9-19.2-1.9-28.9-2.9c-19.2-2.1-38.4-4.4-57.5-7c-1.7-0.3-5.4-0.7-7.2-1c-1.7-0.3-5.4-0.7-7.2-1c-1.7-0.3-5.4-0.8-7.2-1
					c-0.9-0.1-2.7-0.4-3.6-0.5c-0.9-0.1-2.7-0.4-3.6-0.5c-3.4-0.6-10.9-1.6-14.3-2.2c-3.4-0.6-10.8-1.7-14.2-2.4
					c-12.4-2.1-24.7-4.4-36.9-6.9c15.6,1.8,31.1,3.2,46.7,4.5c5.2,0.4,12.5,0.9,17.7,1.3c5.3,0.4,12.5,0.8,17.8,1.1
					c0.8,0.1,2.1,0.1,2.9,0.2c0.8,0.1,2.1,0.1,2.9,0.2c1.6,0.1,4.2,0.2,5.7,0.3c1.6,0.1,4.2,0.2,5.7,0.3c1.6,0.1,4.2,0.2,5.7,0.3
					c15.3,0.7,30.6,1.2,45.9,1.6c7.6,0.2,15.3,0.3,22.9,0.4c7.6,0.1,15.3,0.2,22.9,0.2c-9.2-0.8-18.4-1.8-27.5-2.7
					c-9.2-1-18.3-2-27.5-3c-18.3-2.1-36.5-4.5-54.7-7.1c-1.9-0.3-4.9-0.7-6.8-1c-1.9-0.3-4.9-0.7-6.8-1s-4.9-0.7-6.8-1.1
					c-1-0.2-2.4-0.4-3.4-0.5c-1-0.2-2.4-0.4-3.4-0.5c-3.9-0.7-9.7-1.5-13.6-2.2c-3.9-0.7-9.7-1.6-13.5-2.4
					c-11.8-2.1-23.5-4.4-35.2-6.8c27.2,3.1,54.4,5.3,81.7,7c35,2.1,70.1,3.2,105.1,3.7c-34.8-3.7-69.5-8.1-104.1-13.4
					c-12.2-1.9-24.3-3.9-36.4-6c95.2,11.1,252.1,12.6,349.8,15.9c33.9,1.2,130,5.5,216.8,1.9c-16.2,1.2-32.4,2.3-48.6,3.2
					c35,1.3,70.1,1.9,105.2,1.5c29.7-0.4,59.4-1.4,89.2-3.6c-12.5,2.1-25,3.9-37.6,5.6c-3.4,0.5-8.9,1.1-12.3,1.6
					c-3.5,0.5-8.9,1-12.4,1.5c-0.9,0.1-2.2,0.2-3.1,0.4c-0.9,0.1-2.2,0.2-3.1,0.3c-1.7,0.2-4.5,0.5-6.2,0.7
					c-1.7,0.2-4.5,0.5-6.2,0.7c-1.7,0.2-4.5,0.4-6.2,0.6c-4.2,0.4-8.3,0.8-12.4,1.2c-12.4,1.1-24.8,2.2-37.3,3.1
					c-8.3,0.6-16.6,1.2-24.9,1.7c-8.3,0.5-16.6,1-25,1.4c-5.7,0.6-11.3,1.1-17,1.6C1383.2,1280.5,1395,1280.9,1406.9,1281.2z
					 M1583.3,781.8c2.5,2.8,4.8,5.8,7,9.2c0.1,7.6,1.4,44.4,2.6,93.6c-1.6,25-4.5,49.6-9.8,52.6
					C1572.1,943.6,1583.3,786.7,1583.3,781.8z M1399.3,666.5c0,0.1,3.3,6.4,3.5,6.8c0.6,1.2,4,7.4,5,8.9c3.7,6.1,8.9,12.6,14.9,19
					c6.2,26.4,48.9,80,64.2,95.3c15.5,15.5,42.9,79.2,42.9,108.5c0,0-6-17.6-24.9-28.5c16.9,34.2,24.3,95.7,8.5,104.9
					c-15.8,9.1-54-13.4-60.3-28.8c-0.8-2.5-1.4-4.9-1.9-7.2c2.6,40-133.4,119.2-177.1,131.8c53.9-13.6,117.6-48.8,126.1-57.3
					c-18.7,24.6-87,53.1-129.5,66.5c49.7-10.8,126-45.4,145.2-64.6c-18.7,30.4-90.9,68.6-148.2,78.8c64.5-5.1,145.4-51.6,156.7-62.8
					c-8.5,18.3-71.3,56.9-97.7,62.8c31.8-3.4,97.7-34,108.3-44.6c-15.7,31.8-88.7,59.9-112.1,62.4c33.1,0,105.1-28.4,116.3-39.6
					c-5.9,18.8-78.1,46.4-110.8,46.4c17.3,0.9,32.1,1.1,44.7,1c-170.1,18.9-437.9,8.6-509.2-47.4c23.9,24.3,80.1,42,150,53.1
					c52.6,12.7,83,19,62.8,24.7c-24.5,6.9-111,9.5-130,13.8c59.6,0,105.7-4.7,117.1-4.7c11.4,0-86,23.8-117.1,30
					c71.4,0,471.6,10.8,503.3,10.8c31.7,0,69.8-3.5,87.2-13.6c-27.2,3.4-100.8,1.7-131.9,1.7c53.8-6.2,92.6-23.5,101.3-32.3
					c-20.9,12-68.5,11.3-83.8,11.3c29.3-16.9,81.5-27.2,81.5-27.2c-38.5,2.8-66.8,10.2-104.2,10.2c55.5-13,81.7-23.8,91.7-33.8
					c-18.7,10.8-70.2,17.3-70.2,17.3c39.1-11.9,54.9-20.4,54.9-20.4c-7.6,1.8-21.6,2.8-34.6,3.3c28.4-7.5,50.3-16.8,62.9-27.8
					c-3.4,2.1-7.4,4.1-11.9,6c5.1-2.3,9.3-4.4,11.9-6c12.6-7.3,19.1-25.1,33.5-29.1c-16.3,0-31.4-2.8-41.6-15.5
					c3.7,2.1,13.8,6.6,21.7,7.9c-15.4-8.9-24.8-26.6-27.2-32.5c4.9,6.4,9.6,12,13.6,16.3c-3.4-5.4-7.3-11.3-11.3-17.4
					c6.1,2.2,16.4,4.8,27.7,3.3c9.8,10.4,23.3,23.6,24.7,34.5c-3.1,23.4-19.3,39.6-19.8,40.1c17.9-7.8,23.3-21.8,23.3-21.8
					c0,14.4-7.8,34.3-7.8,34.3c16.8-9.7,21.8-28.9,21.8-28.9c-2.3,23.8-12.5,48.4-12.5,48.4c18.3-10.6,24.1-38.2,24.1-38.2
					c0,28.4,0.4,47.5-5.8,62.3c8.2-8.2,14-29.2,16.3-42.4c2.7,27.7,1.1,62.1-7,70.9c5.3-5.4,9.2-12.2,12-19
					c-2.3,26.5-5.8,45.1-10.9,51.1c-37.2,46.8-367,28.3-429.3,26.8c-75-1.8-309-5.7-354.8-26.7c-1.7-0.8-6.1-3.1-6.4-5
					c0-0.1-0.2-1.4-0.2-1.4c0-23.7,72.7-20,112.6-24.3c-42.5,0-92.3-16.8-79.8-29.3c12.5-12.5,22.9-54.1,15.6-79.4
					c5.4,7.9,21.7,17,58.8,27.5c-37.1-15.6-67.4-41-56.6-62.6c10.8-21.5,30.6-21.2,49.9-36.2c-0.1,0.2-1.2,3.9-2.9,8.1
					c-6.8,7.2-14.4,13.9-22.7,20.1c36.2-16.6,63.9-64.1,75.5-103c-5.7,11.9-11.6,23.6-18.1,35c3.4-8.8,7.5-20.3,10.1-31.7
					c-4.2,10.3-29.1,47.5-45.6,51.6c0,0,13.8-13.2,15.9-20c-11,17.2-38.1,12.4-40.9,3.5c1.7,1.7,11.1,7,15.9,4.2
					c-25.5-4.2-34.8-71.7-11.7-103.1c-3.6,9.5-6.1,51.7,1.1,63.9c-6.8-32.4,19.5-131.1,61.1-172.8c-0.3,0.7-21.3,46.7-27.1,77
					c11.6-28.3,38.7-95.6,56.3-122.9c5.9-5.1,12-11.1,18.3-18.4c5.2-5.9,11.8-14.6,18.4-25.5c16.5-27.4,25.8-54.7,33.8-85.8
					c0.6,0.1,1.1,0.2,1.7,0.3c-12.5,59.3-21.8,98-43.8,132.3l0,0c-52.9,67.9-58.7,149.1-30.1,218c0.4,2.5,0.6,5,0.6,7.5
					c0,29.7-26.1,56.2-22.6,84.8c3.8,30.9,53.9,61.1,81.9,66.6c-14-8.1-35.6-22-50.9-41.6c29.5,25.2,68.5,39.9,96.7,47.1
					c-25.8-9.8-60.8-30.4-68.2-37.8c48,22.5,94.3,37.8,113.8,37.8c-45-14.4-66.3-26.7-79.6-34.4c52,20,85.9,28,99.9,28
					c-35.2-8.5-68.6-27.7-76.8-32.5c35.9,14.4,66.4,21,67.3,21.2c-18.4-7.8-36-19.3-36.5-19.6c32.8,14.6,70.3,23,111.3,23
					c67.8,0,131.5-24.2,179.5-68.2c88.2-80.8,97-204.3,31.9-293.8c-1.6-4-28.2-72.9-36.8-137.1c2.2-0.4,4.3-0.8,6.5-1.3
					C1374.4,605.2,1396.7,660.7,1399.3,666.5z M1326.7,605.8c21.4,0,31.6,5.6,19.9,5.6s-137.3,2.3-155.1,2.3s-133,0.8-153.7-1.9
					c-20.7-2.6,15.8-13.9,65.8-17.1c13.3,0.4,27.3,0.6,41.6,0.7c2,0,4.1,0,6.1,0c8.2,0.1,16.5,0.1,24.9,0.1c8.3,0,16.7,0,25.1-0.1
					c112.2-0.5,106.5,0.6,129.2-0.7C1345.2,594.1,1305.3,605.8,1326.7,605.8z M1341,947.7c2.9,4.3,5.9,8.6,9.1,12.7
					c1,1.3,2,2.5,3,3.8c-18.2-20.1-33.8-48-36.4-56c-3-9,3.8-15.4,8.8-6.2c5,9.2,28.2,27.8,55.5,38.3c-3.5-0.8-7-2-10.4-3.3
					c-4.7-1.8-9.3-3.9-13.8-6.2c-4.5-2.4-8.9-5-12.9-8.2c3.4,3.9,7.3,7.2,11.4,10.5c4.1,3.2,8.3,6.2,12.9,8.9
					c0.2,0.1,0.3,0.2,0.5,0.3c-1.2-0.5-2.3-1-3.5-1.6c-4.2-2-8.4-4.3-12.4-6.8c-4-2.5-8-5.2-11.6-8.4c3.1,4,6.7,7.6,10.5,11.1
					c0.1,0.1,0.2,0.2,0.3,0.3c3.7,3.4,7.5,6.5,11.5,9.5l0.6,0.5c-1.4-0.8-2.9-1.6-4.3-2.4c-3.7-2.3-7.4-4.7-11-7.4
					c-3.6-2.7-7.1-5.5-10.3-8.7c2.9,4.2,6.1,8,9.5,11.7c0.1,0.1,0.2,0.2,0.3,0.3c3.3,3.6,6.9,7.1,10.5,10.4c0.2,0.2,0.4,0.4,0.6,0.5
					c0.7,0.6,1.4,1.2,2.1,1.8c-0.4-0.3-0.8-0.5-1.2-0.8c-2-1.4-4-2.8-5.9-4.3c-3.3-2.5-6.5-5.1-9.6-7.9c-3.1-2.8-6.2-5.7-9-8.9
					c2.6,4.3,5.5,8.4,8.6,12.4c0.1,0.1,0.2,0.2,0.3,0.3c3,3.9,6.2,7.6,9.6,11.2c0.2,0.2,0.4,0.4,0.5,0.6c3.1,3.3,6.4,6.6,9.7,9.7
					c-3.5-2.9-7-5.8-10.3-8.9c-7.5-6.9-14.7-14.2-21.1-22.4C1335.5,938.9,1338.2,943.4,1341,947.7z M1365.2,980.4
					c2.1,1.6,3.9,2.8,5.1,3.6c0.1,0.1,0.2,0.2,0.3,0.3l0.1-0.1c1,0.6,1.6,1,1.9,1.1l0.8-0.5c6.9-4,27.9-29.3,30.5-39.5l0.5-1.8
					c-1.1-0.2-4.6-0.8-10.3-2.3c49.4-85.9,33.5-197.7-51.6-267.8c120.4,83.4,134.6,246.2,26.3,345.5c-97.9,89.8-256.5,89.8-354.4,0
					c-10.6-9.7-20.1-20.2-28.4-31.1c-5-7.2-11.3-16.8-16.9-25.6c-46.7-82.6-35.4-186.2,36.6-259.3c-71.1,84.7-66.7,209.3,18.7,289.2
					C1121.1,1082.8,1277.8,1075.2,1365.2,980.4z M1302.6,650.8L1302.6,650.8c9.1,4.2,30.9,18.2,48.7,34.9
					c74.4,69.7,86.2,173.9,39.4,254.5c-29.4-9.1-57-29.8-62.4-39.7c-6.9-12.7-19.4-4.5-15,8.9c3.7,11,26,49.7,49.2,68.9
					c-86.9,94-241.3,100-336,11.3c-43.3-40.6-67.2-94.6-67.2-152C959.3,672.4,1150.6,569.5,1302.6,650.8z M1430.4,523.6
					c-7.1,20.1-46.4,43.6-89.7,50.1c45.9-4,65-10.1,81.5-26.6c-10.8,22.1-62.3,36.2-98.2,39.4c24.6,1.4,56.2-3.7,74.5-8.6
					c-17.6,7-38.3,11.3-63.3,13.2l-55.8,0.9c-95.2-0.4-218.7,3.5-268.9-9.7c-16.1-4.2-30.6-11.9-43.4-22
					c17.5,11.4,64.3,26,86.9,23.3c-34.6-4.3-84.7-38-94.6-60.7c20.3,23.9,41.6,34.5,84,37.7c-49-11.8-77.2-43.2-83.2-78.6
					c9.5,16.4,25.6,42,77.8,47.2c-45.2-9.8-68-49-71.4-75.5c4,6.6,12.1,50.7,75.7,59.9c-59.6-15.5-62.7-79.7-77.2-85.8
					c-5.8,5.8-38.3,15.8-57.9,9.2c-3.5-0.8-5.7-1.8-7.1-2.7c0-3.6,1.1-6.6,5-8.2c8-3.3,51-7.6,64.2-4.8c9.2,1.9,21.4,41,26.3,49.7
					c13.2,23.5,35.5,37.6,66.3,41.7c21.6,2.9,41.1,0.2,63.7-3c54.2-7.6,78.1-8.6,162.4,3.1c32.9,4.6,56.7,7.9,71.9,1
					c18.3-8.3,33.5-24,45.3-46.8c-8.3,22.5-20.3,46.8-31.4,54.1c20.1-10.5,37.5-42,42.1-50c-0.8,12.7,4,43.6-57.7,70.2
					c67.4-20.9,72.5-50.1,75.6-56.3c-3.2,32.5-41.9,65.1-79.5,74.4C1397,553.6,1420.6,533.3,1430.4,523.6z M1472.5,435.5
					c-14.9,3.4-43.1-2.7-50.1-8c2-2.5,4.3-4.2,7.4-4.2c7.6,0,34.5,3.4,51.8,6.4C1482.2,431.3,1481.2,433.6,1472.5,435.5z
					 M1471.4,395.1c-22.9-2.8-54.3-7.9-54.3-7.9c10.6,0,57,2.8,59.2,3c-15.7-2.6-46.2-6.6-46.2-6.6c16.1,0,37.4-0.4,37.4-0.4
					c-20.6-4.7-34.2-8.7-34.2-8.7c18.9,0,40.5-1.1,40.5-1.1c-12.5-1.7-39.5-7.9-39.5-7.9c25.3,0,44.2-1.7,52.4-1.7
					c-11.5-2.1-28.7-6.6-28.7-6.6c18.3,0,32.3,1.3,40.1,1.3c-11.5-3-32.5-6.2-32.5-6.2c17.8,0,37.2,0.6,40.1,0.6
					c-13.8-3.2-29.9-7.2-36.7-8.3c-68.8-10.1-121.1-11-121.1-11c50.5,7.9,103.7,13.8,103.7,13.8c-73.6,0-127.9,2.3-127.9,2.3
					c31.1,5.1,109.8,7.4,109.8,7.4c-47,9.6-110.4,9.6-138.1,9.6c39.1,5.7,123.2,6.8,123.2,6.8c-52.4,6.2-161.7,6.2-161.7,6.2
					c25.1,2.4,47.6,4.9,67.2,7.3c-56.6-0.4-140.5-0.2-281.6-1.5l-64.4-0.7c-10-0.2-46.2-0.7-64.3-1.3c0,0,0,0,0,0h0c0,0-0.1,0-0.1,0
					h-0.1c0,0,0,0,0,0c-0.9,0-4.3-0.1-15.9-0.4c-16.1-0.2-8.7,0-16.2,0l-4,0.1l-4.1,0.3l-8.1,0.5l-8.1,0.9c-9,1.1-2.2,0.3-8,1.2
					c-0.1,0-5.5,0.9-6,1c-0.1,0-7.9,1.8-9.9,2.3l-7.8,2.3l-1,0.3l-1,0.3l-1.9,0.7l-3.8,1.4c-46.6,18-91,65.2-118.6,106.9
					c28-27.7,41.7-56.2,91.8-88.8c8.9-5.8,18.3-10.8,28.2-14.6l3.7-1.4c0.1,0,2.8-1,2.8-1c6.3-1.8,8.1-2.4,8.5-2.5c0,0,0,0,0,0h0
					c0,0,0,0,0,0c1.9-0.5,7.2-1.6,7.9-1.8l-3.6,1C747.3,417,726,498.8,692.6,526.5c35.4-26.9,57-107,152.5-128c-0.9,0.3-3.5,1-3.6,1
					c-86.6,23.8-102.9,102.1-145.8,135.2c4.5-3.2,8.5-7,12.4-10.9c0.3-0.1,5.5-6,5.6-6.1c0.9-1,1.8-2.1,2.7-3.1
					c0.1-0.1,2.5-3.1,2.6-3.2c28.5-35,59.3-83.1,115.5-101.4C775.6,431,764.4,470.7,724,518.6c-7.6,9-15.6,17.5-25.2,24.3
					c4.5-3,8.7-6.6,12.6-10.3c0.3-0.2,5.6-5.7,5.7-5.7c1-1,1.9-1.9,2.8-2.9c0.3-0.2,2.5-2.8,2.7-3c21.5-23.9,46.3-58,74.8-80.5
					c-26.2,22.3-52.3,82-95.5,110.6c7.6-4.8,15.3-11.5,21.6-17.7c0.4-0.2,2.4-2.6,2.8-2.8c22.9-23.1,47.1-54.4,68.2-74.5
					c-19.2,22.8-43.3,74.7-89.6,103.2c33.1-19.3,72.6-71.1,92.4-92.2c-14.9,20.5-37.8,70.8-89.3,100.4c42.5-23,80.5-75.6,94.8-92.4
					c-15.8,23.7-33.3,69.4-91.7,100.6c54.3-27.2,84.6-77.6,100.1-97.2c-18.5,27.8-30.1,71.9-97.1,105.4
					c80.9-37.1,88.7-94.9,121.6-119.8c-38.3,30.4-26.3,84.8-118.5,128c67.4-28.2,80.9-63.4,100.5-95.7c-0.5,2-0.8,4.2-0.6,6.6
					c1.9-3.6,2.4-4.8,4.8-8.5c-7.6,30.1-27.5,54.6-53.3,74.1c-1.2,0.9-2.4,1.8-3.7,2.7c-31,22.4-69.7,37.7-105.2,46.4
					c-10,2.4-20.8,4.4-31.8,5.6c-11.6,1.2-22.5,1.6-32.6,1.3c-11.2-0.4-22.1-1.8-32.3-4.4c-16.2-3.6-28.6-12.3-28.9-12.7
					c0,0,0,0,0.1,0c-0.3-0.2-3.3-2.6-3.5-2.7c-1.8-1.6-3.5-3.3-5-4.9c35.5,30.6,88.1,25.8,133.6,14.9C613,622.6,557.7,623.9,528,588
					c31.3,32.7,83.5,28.9,127.7,19.2c-22.8,3-35.7,3.2-51.2,2.2c-0.2-0.1-4.8-0.4-5-0.5c-12.5-1.2-27.6-5.1-40.3-11.8
					c28.6,11.7,62.7,8.4,93,2.3c-23.6,2.3-37.3,1.8-51.3,0.1c-0.5-0.2-4.5-0.6-5-0.8c-7.6-1.2-17.5-4-25.8-8.1
					c24.7,7.8,53.1,5.4,78.5,1c-18,1.2-33.9,1.1-51.4-2.1c-0.7-0.3-4.3-0.7-4.9-1.1c-5.7-1.3-13.1-3.8-19.5-7.2
					c22.6,7.4,48.8,6,72.2,2.6c-24.5,0.8-53.1-0.7-73.8-13.5c21.4,8.7,47.4,8.2,70.2,5.7c-25.2,0-55.3-2.6-74.8-18.6
					c20.7,11.6,47.7,12.4,71.3,10.8c-28.3-0.9-61-5.3-78.4-27.4c19.2,17.1,49,19.9,74.8,19.7c-27.4-1.8-59.8-7.2-75.6-29.4
					c-6.2-8.6-11-21.1-11.8-35.5c8.9,39,41.3,61.1,70.4,59.9c-74.4-17.4-67.1-79.8-69.2-90.5c-1-4.8-2.7-8.8-3.2-13.6
					c-0.3-2.8-0.3-5.7,0.1-8.6c11.5-11.5,39.7-22.4,53.4-27.6c50.4-19.1,192.4-62,250.1-75.9c282.7-65.1,656.5-33.7,896.9,78.4
					c65.6,33.1,92.5,64.1,99.9,115.4c-8.9-29.9-30.7-67.5-85.7-100.2c28.7,21.6,70,75.7,54.4,107.7c-4.1,1.7-8.3,3-12.6,4.2
					c-2.4,0.6-4.8,1.2-7.3,1.7c-2.4,0.5-4.9,1-7.4,1.5c-9.9,1.8-19.9,3.1-29.9,4.7c-5,0.8-10,1.8-14.9,3.3c-2.5,0.7-4.9,1.6-7.3,2.7
					c-2.4,1.1-4.7,2.3-6.6,4c4.9-1.5,9.8-2.2,14.7-3c4.9-0.8,9.9-1.5,14.8-2.3c9.9-1.6,20-3.1,29.9-5.2c5-1,9.9-2.3,14.8-3.8
					c3.7-1.1,7.3-2.4,10.8-4c-2.9,1.8-5.8,3.4-8.8,5.1c-10.8,5.8-22.1,10.7-33.8,14.5c-11.7,3.8-23.8,6.6-36.1,8.2
					c-12.3,1.6-24.8,2-37.2,1.1c12.4,1.8,24.9,2.3,37.5,1.6c28.5-1.6,57.2-9.4,82.8-22.5l1.1,2.3c-18.7,12.5-48.1,23.4-82.3,26.3
					c-1.3,0.1-2.6,0.2-3.8,0.3c-10.3,0.7-20.7,0.6-31.1-0.3c-1.4,0.1-2.8,0.2-4.1,0.3c9.1,1.6,18.3,2.7,27.5,3.1
					c3.8,0.2,7.6,0.2,11.4,0.2c35-0.3,63-8.6,86.5-21.4l0.9,1.9c-23.9,18.3-62.9,25.1-93,25.3c-10.8,0.1-21.6-0.6-32.3-2
					c-0.3,0.3-0.7,0.6-1,0.9c9.4,2,18.9,3.5,28.5,4.3c34.6,3,70.6-1.1,101.9-19.8l0.6,1.3c-28,25.3-88.2,28.9-133.2,20.6
					c0.7,0.5,1.4,1,2.1,1.5c44.1,11,97.7,12.2,135.5-12.9l0.2,0.4c-28.2,31.1-99.6,27.8-141,18.3c1.7,0.7,3.5,1.5,5.3,2.1
					c42.5,11.9,102.4,17.2,138.4-9.1c-27.4,33.8-104.5,25.7-146.8,14.3c43.1,14.8,115.6,26.6,150.2-3c-0.6,0.8-1.2,1.7-1.3,1.8
					c-6.4,7.6-12.9,13.3-27.2,19c-46.3,16.3-106.3-0.2-152-18.1c-18.3-7.3-37.8-15.2-56-26.7c-0.1-0.1-5.9-3.7-6.2-3.9c0,0,0,0,0,0
					c-7.5-5.3-14.3-10.4-20.8-16.3c-7.4-7-12-12-12.5-12.6c22.8,20.3,57.6,35.3,85.7,46.9c-23.3-11.2-51-25.2-71.1-41.4
					c17.7,11.2,41.6,20.8,62.4,29.1c-25.9-12.5-57.9-27.4-75.3-46.8c16.9,15.8,40.1,26.7,61.7,35c-13.3-7.1-26.5-15-38.3-24.5
					c13,7.8,30,13,32.2,13.9c-2.2-1.3-19-9.9-30.4-20.6c5.1,4.5,10.6,7.3,16.8,9.4c-28.6-17.8-21-46-18-76.1
					c-0.9,16.9-3.7,36.8,0.8,53.5c-2.3-25.7,6.7-55.3,1.7-78.8c15.4,15,35.3,42.9,41.7,60.1c-2.1-16.5-19.6-44.5-20.2-45.4
					c13.8,10.1,26.6,24.9,27.3,25.8c-14.4-25.3-41.4-52.4-38.9-70.2c2.5-17.8,61.7-21.8,82.1-4.2c-5.7-11-25.2-15.6-25.2-15.6
					c20.4-1.4,52.9,16.1,68.8,32c-14.7-20.4-56.3-40.5-90.9-49.3c-34.5-8.8-83.8-24.3-102.5-30.6c21.8,12.6,81,32.8,81,32.8
					c-21.5-3.9-58.3-15.8-59.4-16.1c10.2,5.9,30.5,13.9,31.1,14.1c-17.8-3.6-40-9.4-40.7-9.6c9.9,5.7,31.1,17,31.1,17
					c-18.7-3.7-40.2-9.3-46.1-10.8c7.1,7.1,40.6,20.8,44.7,23.2c-14.7-2-47.7-10.8-53.5-14.2c3.1,6.2,51.5,25.6,54.6,27.5
					C1553.8,411.8,1494.4,397.9,1471.4,395.1z M1642.1,608c-5.1-1.9-10.1-4.2-15-6.7C1632,603.6,1636.9,605.8,1642.1,608z
					 M1579.4,528.6c0.4,0.8,0.9,1.6,1.3,2.4C1580.2,530.2,1579.7,529.4,1579.4,528.6z M1533.7,500.5
					c-22.1,122.4,264.1,217.4,314.1,106.6c-0.5,3.4-1.2,6.8-2.2,9.6c-7.4,18.2-21,31.3-40.4,38.8c-58.3,22.7-186.3-8-251.2-78.6
					c-17.6-19.1-25.5-35.6-27.1-44.8C1524.2,517.1,1526.5,506.8,1533.7,500.5z M1785.3,700.7c-31.8,9.7-66.6,10.1-99.9,5
					c30.5,6.7,62.9,8.9,94,3c-33.5,9.9-69.9,9.5-104.4,3.3c32,7.8,65.9,10.7,98.5,4.8c-35,9.9-72.9,8.9-108.9,1.5
					c33.4,9.1,69,12.6,103,6.7c-35,9.4-72.3,8.2-107.6,0.8c-1.9-0.6-3.8-1.2-5.6-1.8c-46.6-15.9-103.9-43.3-134.6-82.9
					c22.8,25.5,52.3,43.5,82.8,58.6c-31.7-18.1-62.4-39.6-83.5-69.4c23.2,27.4,54.8,47.3,87,62.9c-32.4-18.1-64.4-41-85.7-71.5
					c23.4,28,56.1,49.2,89.1,64.9c-33.4-18.2-66.3-42.4-87.9-73.5c23.6,28.7,57.6,51.2,91.3,67c-33.9-18.1-68.2-43.6-90.2-75.7
					c23.8,29.3,58.9,53.2,93.6,69.1c-34.7-18.1-70.2-44.9-92.5-77.9c24.3,30.4,60.9,55.4,95.9,71.3c-25-12.8-50.9-30.9-71-51.1
					c55.3,48.5,144.4,80.5,215.4,76.4c-18.9,2.5-38.2,2.4-57.7,0.6c27.9,4.6,57.2,5.5,85.1-0.3c-30.3,9.7-63.7,10.5-95.5,6.6
					C1725.4,705,1756.2,706.5,1785.3,700.7z M1845.1,647L1845.1,647c-0.2,0.7-1.8,4.6-3.9,8.1c-27.1,44.8-130.1,45.3-219.7,3.3
					c-46.4-21.8-83.1-51-103.3-82c-19.7-35.4-10.5-59,6.7-69.7c-2.8,6.6-3.3,15.2-1.4,25.8c3.9,22,36.1,69.1,106.2,102.3
					c68.7,32.5,184.1,56,217.1-12.7C1848,627.8,1848.8,636.9,1845.1,647z"/>
				<path class="st13" d="M1267.4,715.9c23,0,41.6-16.6,41.6-37.1c0-20.5-18.7-37.1-41.6-37.1c-23,0-41.6,16.6-41.6,37.1
					C1225.8,699.2,1244.4,715.9,1267.4,715.9z M1267.4,656.8c21.4,0,38.3,16.9,34.8,36c-13.6,26.2-55.9,26.3-69.5,0
					C1229.1,673.6,1246.1,656.8,1267.4,656.8z"/>
				<path class="st13" d="M1187.5,698.4c22.1,0,40.1-16.3,40.1-36.4c0-20.1-18-36.4-40.1-36.4c-22.1,0-40.1,16.3-40.1,36.4
					C1147.3,682,1165.3,698.4,1187.5,698.4z M1187.5,640.5c20.6,0,36.7,16.6,33.4,35.2c-13.1,25.7-53.7,25.6-66.8,0
					C1150.7,656.9,1167,640.5,1187.5,640.5z"/>
				<path class="st13" d="M1108.3,715.9c22.1,0,40.1-16.3,40.1-36.4c0-20.1-18-36.4-40.1-36.4s-40.1,16.3-40.1,36.4
					C1068.2,699.6,1086.2,715.9,1108.3,715.9z M1108.3,658c20.6,0,36.7,16.6,33.4,35.2c-13.1,25.7-53.7,25.6-66.8,0
					C1071.6,674.5,1087.9,658,1108.3,658z"/>
				<path class="st13" d="M1004.6,728.1c0,20.1,18,36.4,40.1,36.4s40.1-16.3,40.1-36.4c0-20.1-18-36.4-40.1-36.4
					S1004.6,708,1004.6,728.1z M1044.7,706.6c20.6,0,36.7,16.5,33.4,35.2c-13.1,25.7-53.7,25.6-66.8,0
					C1008,723,1024.2,706.6,1044.7,706.6z"/>
				<path class="st13" d="M1009.5,835.7c22.6,0,40.9-17.2,40.9-38.2s-18.4-38.2-40.9-38.2c-22.6,0-40.9,17.2-40.9,38.2
					S987,835.7,1009.5,835.7z M1009.5,774.7c21.1,0,37.5,17.6,34.1,37.2c-13.4,27.1-54.8,27.1-68.2,0
					C972,792.3,988.4,774.7,1009.5,774.7z"/>
				<path class="st13" d="M1052.8,873.4c0-20.7-18.4-37.5-40.9-37.5S971,852.8,971,873.4c0,20.7,18.4,37.5,40.9,37.5
					S1052.8,894.1,1052.8,873.4z M977.8,887.6c-3.4-19.2,13-36.4,34.1-36.4c21.2,0,37.5,17.3,34.1,36.4
					C1032.6,914,991.2,914.1,977.8,887.6z"/>
				<path class="st13" d="M1189.5,965.6c-16.8,0-31.3,10.1-37.7,24.5c-0.3-36.9-44.8-54.6-70-28.3c14.3-25.5-5.1-56.8-36-56.8
					c-22.5,0-40.8,17.4-40.8,38.7c0,35.2,45.7,52,70.7,26.2c-15.6,27.1,3.7,61.8,35.3,61.8c16.6,0,30.8-10.1,37.2-24.4
					c0.3,22.5,18.7,40.7,41.3,40.7c22.8,0,41.3-18.5,41.3-41.2C1230.8,984.1,1212.3,965.6,1189.5,965.6z M1011.8,958.4
					c-3.4-19.9,12.9-37.7,34-37.7c21.1,0,37.4,17.9,34,37.7C1066.4,985.8,1025.2,985.8,1011.8,958.4z M1145,1006.3
					c-13.4,29.4-54.5,29.4-67.9,0c-3.4-21.2,12.8-40.5,33.9-40.5C1132.1,965.8,1148.4,985,1145,1006.3z M1223.9,1022.6
					c-13.6,29.4-55.4,29.4-68.9,0c-3.5-21.3,13.1-40.5,34.4-40.5C1210.9,982.1,1227.4,1001.2,1223.9,1022.6z"/>
				<path class="st13" d="M1270.6,944.2c-23.1,0-41.9,19.6-41.9,43.7s18.8,43.7,41.9,43.7c23.1,0,41.9-19.6,41.9-43.7
					S1293.7,944.2,1270.6,944.2z M1305.6,1004.8c-13.8,31.4-56.2,31.3-70,0c-3.5-22.7,13.2-43.2,35-43.2c19.6,0,35.5,16.7,35.5,37.2
					C1306.1,1000.8,1305.9,1002.8,1305.6,1004.8z"/>
				<path class="st13" d="M1188.2,716.2c-66.6,0-120.9,50.3-120.9,112.2c0,61.9,54.2,112.2,120.9,112.2
					c66.7,0,120.9-50.3,120.9-112.2C1309,766.5,1254.8,716.2,1188.2,716.2z M1188.2,937.3c-64.8,0-117.5-48.8-117.5-108.8
					c0-60,52.7-108.8,117.5-108.8s117.5,48.8,117.5,108.8C1305.6,888.4,1252.9,937.3,1188.2,937.3z"/>
				<path class="st13" d="M1188.2,709.7c-70.5,0-127.9,53.3-127.9,118.7s57.4,118.7,127.9,118.7c70.5,0,127.9-53.3,127.9-118.7
					S1258.7,709.7,1188.2,709.7z M1188.2,943.7c-68.6,0-124.5-51.7-124.5-115.3c0-63.6,55.8-115.3,124.5-115.3
					c68.6,0,124.5,51.7,124.5,115.3C1312.6,892,1256.8,943.7,1188.2,943.7z"/>
				<path class="st13" d="M1649.3,540.3c105.1,40.7,139.5-57.7,91.5-92.1C1772.4,479.9,1748.4,573,1649.3,540.3z"/>
				<path class="st13" d="M1223.3,794.3c-1.4-4.4-5.1-7.7-9.6-8.7l-18.7-4l-13.2-2.8c-3.9-0.8-8,0.2-11,2.8
					c-0.4,0.4-0.8,0.8-1.2,1.2l-6.1,6.7l-15.8,17.5c-0.6,0.7-1.1,1.4-1.6,2.1c-2.6,4.5-2.1,11.4-0.7,15.9c1.4,4.5,4.3,12.4,9.6,29.6
					c1.4,4.4,5.1,7.7,9.6,8.7c33.8,7.2,32.2,7.1,34.6,7.1c2.3,0,4.5-0.6,6.4-1.7c1.2-0.7,2.2-1.5,3.1-2.5l14.9-16.5l7-7.7
					c0.1-0.1,0.1-0.2,0.2-0.2c5.3-6.1,2.6-16.6-0.1-24.2C1229,812.3,1226.5,805.1,1223.3,794.3z M1213,788.9c3.3,0.7,6,3.2,7,6.4
					l5.4,16.8l-26.1-26.1L1213,788.9z M1158.2,849.6l-10-31.1c-0.7-2.3-0.6-4.8,0.4-6.9L1200,863c-0.9,0.1-1.9,0-2.9-0.2l-31.9-6.9
					C1161.9,855.2,1159.2,852.8,1158.2,849.6z M1219.4,845.3l-53.5-53.5l6.2-6.8c0.3-0.4,0.7-0.7,1.1-1.1l53.4,53.4L1219.4,845.3z"
					/>
			</g>
		</g>
	</g>
</g>
</svg>
