<?xml version="1.0" standalone="no"?>
<!DOCTYPE svg PUBLIC "-//W3C//DTD SVG 20010904//EN"
 "http://www.w3.org/TR/2001/REC-SVG-20010904/DTD/svg10.dtd">
<svg version="1.0" xmlns="http://www.w3.org/2000/svg"
 width="214.000000pt" height="214.000000pt" viewBox="0 0 214.000000 214.000000"
 preserveAspectRatio="xMidYMid meet">
<metadata>
Created by potrace 1.14, written by Peter Selinger 2001-2017
</metadata>
<g transform="translate(0.000000,214.000000) scale(0.100000,-0.100000)"
fill="#000000" stroke="none">
<path d="M865 2119 c-139 -27 -251 -71 -365 -143 -84 -53 -100 -66 -191 -156
-143 -142 -263 -366 -285 -531 -4 -32 -10 -46 -18 -42 -6 4 -5 -1 3 -10 7 -9
9 -17 4 -17 -6 0 -10 -59 -10 -145 0 -98 4 -145 11 -145 6 0 4 -5 -4 -10 -10
-6 -11 -10 -2 -10 6 0 12 -12 12 -28 0 -37 31 -142 69 -232 87 -210 269 -406
479 -518 78 -41 198 -86 261 -97 19 -3 38 -8 42 -11 19 -12 297 -22 315 -12 5
3 32 8 61 12 29 3 89 18 135 32 220 69 396 194 535 377 98 130 184 330 199
465 4 31 11 65 15 74 6 11 5 18 -4 21 -9 4 -9 6 1 6 6 1 12 10 12 22 0 11 -4
18 -9 14 -6 -3 -7 6 -2 22 8 32 7 58 -4 92 -4 14 -3 21 2 18 5 -4 10 0 10 8 0
8 -4 12 -8 9 -4 -2 -7 8 -7 23 1 42 -21 139 -49 218 -61 170 -149 304 -284
432 -133 126 -357 239 -513 259 -28 4 -55 10 -61 14 -21 14 -260 7 -350 -11z
m256 -628 c0 -119 0 -251 -1 -293 l-1 -78 298 -2 298 -3 0 -62 c0 -35 -2 -63
-5 -64 -28 -6 -713 -2 -717 4 -4 7 -7 570 -4 694 1 18 8 22 39 25 20 2 49 1
65 -1 l27 -3 1 -217z m-397 -282 l1 -474 475 -5 476 -5 -1 -57 c0 -31 -3 -60
-8 -64 -4 -4 -247 -7 -540 -7 l-532 0 -3 541 -2 541 22 3 c13 2 43 2 67 2 l45
-2 0 -473z"/>
</g>
</svg>
