<?xml version="1.0" standalone="no"?>
<!DOCTYPE svg PUBLIC "-//W3C//DTD SVG 20010904//EN"
 "http://www.w3.org/TR/2001/REC-SVG-20010904/DTD/svg10.dtd">
<svg version="1.0" xmlns="http://www.w3.org/2000/svg"
 width="342.000000pt" height="342.000000pt" viewBox="0 0 342.000000 342.000000"
 preserveAspectRatio="xMidYMid meet">
<metadata>
Created by potrace 1.14, written by Peter Selinger 2001-2017
</metadata>
<g transform="translate(0.000000,342.000000) scale(0.100000,-0.100000)"
fill="#000000" stroke="none">
<path d="M1502 3409 c-4 -4 -29 -10 -57 -13 -81 -10 -108 -14 -143 -25 -18 -5
-33 -9 -35 -9 -4 2 -118 -33 -145 -44 -15 -6 -29 -12 -32 -13 -29 -10 -59 -23
-140 -62 -52 -26 -97 -49 -100 -53 -3 -3 -12 -10 -20 -14 -111 -52 -310 -222
-432 -367 -52 -63 -130 -171 -154 -214 -6 -11 -27 -49 -46 -85 -30 -55 -90
-188 -103 -230 -19 -62 -33 -110 -39 -139 -3 -13 -10 -38 -15 -55 -6 -17 -12
-56 -13 -87 -2 -33 -7 -55 -13 -53 -6 3 -11 -9 -11 -26 -1 -16 2 -30 7 -30 5
0 9 -5 9 -11 0 -5 -4 -8 -9 -5 -5 3 -9 -70 -8 -169 0 -96 4 -172 9 -169 4 3 8
1 8 -5 0 -5 -5 -13 -10 -16 -8 -5 -7 -12 1 -22 7 -8 14 -31 16 -51 5 -60 25
-156 36 -170 5 -6 7 -12 4 -12 -3 0 3 -26 14 -57 11 -32 20 -60 21 -63 9 -53
168 -366 197 -390 4 -3 24 -29 45 -58 77 -106 210 -242 321 -326 79 -61 232
-156 297 -185 127 -57 199 -84 298 -110 106 -28 127 -32 192 -38 34 -3 55 -9
52 -15 -4 -6 3 -5 14 1 14 7 23 8 27 1 3 -5 11 -10 16 -10 6 0 8 4 4 9 -5 10
52 -3 63 -13 2 -3 12 -1 22 4 10 5 20 6 24 3 10 -11 105 -9 98 1 -3 5 2 7 11
3 9 -3 19 -2 23 4 4 6 14 3 27 -8 11 -10 17 -12 13 -6 -4 7 -6 13 -4 14 2 0
32 2 68 5 36 3 97 12 135 20 39 9 80 18 93 20 43 8 237 81 307 116 232 114
437 277 585 466 33 43 66 85 75 94 8 10 15 21 15 24 0 3 13 24 29 47 24 36
142 262 140 269 -1 4 11 40 22 63 6 16 39 123 44 145 1 3 4 19 8 35 7 31 14
60 22 105 2 14 7 75 10 135 3 60 10 112 15 115 5 3 8 15 7 27 0 12 -5 19 -9
17 -4 -3 -8 -1 -8 5 0 5 4 12 9 15 8 5 8 34 1 44 -2 1 -4 11 -5 22 -1 11 -3
21 -5 23 -7 8 -7 37 0 37 5 0 11 -8 13 -17 4 -17 5 -17 6 0 0 10 -6 20 -14 23
-11 4 -15 21 -15 58 0 28 -5 69 -10 91 -5 22 -11 51 -14 65 -64 302 -239 617
-467 840 -58 56 -146 132 -167 144 -10 5 -23 15 -30 22 -23 23 -186 120 -262
156 -167 79 -299 120 -445 139 -38 5 -80 14 -93 19 -17 7 -21 7 -16 -1 4 -8 1
-8 -12 -1 -24 12 -312 13 -320 1 -3 -5 -11 -9 -17 -9 -7 0 -6 4 3 10 12 7 10
9 -8 7 -12 -1 -26 -5 -30 -8z m286 -1146 l2 -473 475 0 475 0 -1 -108 -2 -107
-580 0 -580 0 1 545 c0 300 1 561 1 581 l1 36 103 -1 102 -1 3 -472z m-632
-324 c-1 -413 2 -755 5 -761 4 -7 260 -10 761 -10 l754 0 2 -46 c3 -81 1 -156
-4 -162 -3 -3 -394 -5 -868 -5 l-862 0 1 860 c1 473 2 863 3 867 1 4 48 7 105
7 l103 1 0 -751z"/>
<path d="M3406 1607 c3 -10 9 -15 12 -12 3 3 0 11 -7 18 -10 9 -11 8 -5 -6z"/>
</g>
</svg>
